<svg id="efN8G7lAPSa1" xmlns="http://www.w3.org/2000/svg" xmlns:xlink="http://www.w3.org/1999/xlink" viewBox="0 0 600 600" shape-rendering="geometricPrecision" text-rendering="geometricPrecision" project-id="f29661a15ab7497e8f7f888a90153823" export-id="2a63621fb8ed40d09255f931ac25fc2d" cached="false"><defs><linearGradient id="efN8G7lAPSa26-fill" x1="0.5" y1="0" x2="0.5" y2="1" spreadMethod="pad" gradientUnits="objectBoundingBox" gradientTransform="translate(0 0)"><stop id="efN8G7lAPSa26-fill-0" offset="0%" stop-color="rgba(255,255,255,0)"/><stop id="efN8G7lAPSa26-fill-1" offset="100%" stop-color="#010022"/></linearGradient></defs><g transform="matrix(.109112 0 0 0.107066 16.503833-8.663365)"><path d="M3228,5560c-1075.999756,0-2149.999634,0-3223.999568,0C4.000288,3708.000488,4.000288,1856.001099,4.000144,4.001178c1851.999002-.000393,3703.998147-.000393,5555.997903-.000785.000976,1851.998508.000976,3703.99741.001465,5555.997654C4783.333496,5560,4006.666748,5560,3228,5560M1968.628418,2727.522461c-94.654053,42.750244-185.6073,92.347656-273.346802,147.874023-3.775512,2.389405-7.052612,5.566651-10.368042,8.22168c8.235962,52.856934,16.246704,104.71167,24.410156,156.542481c8.889405,56.440185,17.81836,112.874511,26.939454,169.277587c3.814819,23.589356,8.169311,47.091065,11.867187,73.950684c3.992554,24.210449,7.98523,48.420898,11.452881,76.099609c4.393921,28.94043,8.662109,57.901123,13.38501,86.787842.45105,2.759278,3.740967,5.054199,6.016235,10.852295c3.623779,25.681152,7.13916,51.37793,10.896484,77.039551c5.876709,40.136963,11.988648,80.239014,17.868653,120.375488c5.977051,40.799317,11.689331,81.637207,17.707886,122.43042c7.279418,49.340088,14.877075,98.633545,22.118286,147.979248c7.338379,50.006836,14.319091,100.065674,21.623169,150.077637c7.592285,51.984619,15.276001,103.956299,23.142089,155.900146c3.180054,20.998536,6.949707,41.908692,9.374878,65.603028-1.031372,2.456543-1.846313,5.033203-3.129516,7.350097-8.595459,15.527344-11.635864,31.795899-11.003296,49.791016c2.972656,84.57959,4.982178,169.194336,7.253052,253.79834c2.860962,106.588379,5.708984,213.177734,8.434692,319.770019c1.942139,75.948243,3.609619,151.903809,5.530884,227.852539.724609,28.645997,1.800171,57.283204,2.768677,85.922364.107299,3.172851.562377,6.333984.82666,9.183105c21.064697,3.249024,343.03601,3.50586,512.538696.549805c4.516357-.078613,9.022461-.763672,14.254883-1.230469.445801-4.71875,1.056885-8.564941,1.135742-12.421387.953857-46.641113,1.947998-93.282226,2.696533-139.927246c1.101074-68.63623,1.988526-137.276367,3.008789-205.914062c2.199463-147.937012,4.411621-295.873535,6.683594-443.810059.112305-7.299804.843262-14.589844,4.761963-22.006836c60.633301-1.466797,121.266113-2.939453,181.899658-4.398926c55.304932-1.331054,110.610108-2.644531,165.915283-3.970214c55.302246-1.325196,110.604004-2.666993,165.906494-3.979004c57.301514-1.359375,114.601075-2.791016,171.905762-3.999024c34.65625-.730468,69.320069-1.094726,104.767334,2.118653c1.060547,31.290039,2.261475,62.576171,3.153076,93.871093c2.011719,70.58252,3.729248,141.174805,5.82251,211.754883c3.593994,121.183594,7.425537,242.360352,11.073242,363.542481c1.663086,55.265136,3.090576,110.537109,4.744141,165.802734.133301,4.455566,1.195068,8.883301,1.833008,13.378418c3.701904.399902,6.327392.949219,8.948242.928223c171.193115-1.356446,342.385742-2.758789,513.578369-4.1875.623779-.005371,1.280518-.384278,1.855225-.707032.540771-.303711.993652-.762695,2.384521-1.86914c1.900635-9.660645,1.293701-20.317871,1.431152-30.868653c1.514405-116.572753,2.928223-233.14746,4.320557-349.722168c1.034424-86.599121,2.014649-173.199707,2.987549-259.799316.928223-82.603516,1.729492-165.208008,2.839111-247.809082.128907-9.575684-1.553711-18.493164-5.191162-27.189453-4.621094-11.04834-9.263428-22.087891-12.639648-36.565918c3.417969-23.724609,6.757324-47.460449,10.270752-71.170899c7.416015-50.046874,14.955078-100.075195,22.385254-150.120361c7.723388-52.020019,15.403564-104.046875,23.053466-156.077881c5.713868-38.862549,11.327881-77.739502,17.026368-116.604492c7.532959-51.375976,15.123291-102.743408,22.652587-154.119873c5.888428-40.180664,11.698487-80.373047,17.584961-120.553955c5.982911-40.838379,12.096436-81.658203,18.006592-122.50708c5.716553-39.510254,11.246338-79.047852,17.875244-121.675781c1.140381-7.678711,2.229004-15.365723,3.44043-23.033203.750244-4.748291.063477-9.020997-2.631592-16.001954c2.756592-23.211914,5.513184-46.423584,9.874512-72.341064c16.168701-122.488281,32.337646-244.976563,48.571533-367.958252-4.997803-3.159912-9.263672-6.221436-13.845703-8.69873-57.335937-30.998536-115.818848-59.652832-175.665527-85.492188-4.231201-1.826904-8.736817-3.01709-15.007813-6.531006-18.164551-7.047851-36.329101-14.095947-56.442627-23.199463-76.495361-30.343506-154.247558-56.971924-233.692627-78.508545-35.834961-9.714843-71.824707-18.857422-106.71997-31.233398.7854-2.546387,1.553955-5.098145,2.358886-7.638428c79.246094-250.060791,158.489502-500.122314,237.775879-750.170288c1.78711-5.636474,4.058838-11.119263,6.459717-17.639038c7.084717,0,13.64917.006104,20.213623-.000977c29.987061-.032348,59.894043-.488769,89.821289-3.656738c68.777344-7.280395,134.939697-24.093139,198.248047-51.863281c81.188477-35.613281,154.278809-84.058106,221.687988-141.300293c41.3042-35.074585,78.828614-73.75061,109.963867-118.295166c21.104004-30.193359,38.47168-62.292358,49.212891-97.742676c10.193848-33.647583,13.660645-67.688598,7.884277-102.622558-7.15332-43.265747-26.742675-80.598877-53.467285-114.621827-21.950195-27.94458-47.817383-51.913696-75.806152-73.67163-57.717285-44.868531-121.605957-79.122315-188.000732-109.000977-91.926514-41.368042-187.288575-73.022522-284.354004-99.727905-135.012452-37.145752-272.088379-64.254517-410.587403-84.628968-88.361816-12.99884-177.050537-22.956787-266.035156-30.132812-79.723389-6.429077-159.620117-10.01947-239.619629-10.806885-118.694824-1.168335-237.171875,3.171448-355.509277,12.673279-71.082764,5.70752-141.992676,12.912415-212.678467,22.094299-79.255127,10.295166-158.142578,23.029175-236.638306,38.232361-109.26709,21.163025-217.346191,46.979492-323.49646,80.560364-85.208252,26.955749-168.58081,58.545166-248.063842,99.748413-45.055176,23.35614-88.23462,49.715881-127.814331,81.629089-33.395264,26.926514-63.372925,57.110474-86.347779,93.649536-37.234497,59.217164-46.338501,122.340821-26.398315,189.629395c12.072632,40.73938,31.863037,77.489136,56.392822,111.873047c38.658203,54.187866,85.535034,100.54602,138.407227,140.513794c188.143066,142.223633,399.379028,221.285156,635.901367,230.197876c3.867187.145752,7.715576.787842,11.927978,1.236084c2.52002,6.219726,4.822022,11.683716,6.96045,17.211303c30.030273,77.625245,60.053955,155.25293,90.048583,232.891968c61.90918,160.246338,123.799805,320.499756,182.417237,482.067139-3.167481,1.015869-6.298096,2.169922-9.507813,3.026611-72.079834,19.243653-143.027343,42.047364-212.70874,68.661377-27.909668,10.659424-55.267334,22.763428-85.865967,34.65503-17.661377,8.051757-35.322754,16.103515-55.901611,24.547607Z" fill="none"/><g id="efN8G7lAPSa4"><path d="M1902.791992,4293.790039c-3.501221-20.950195-7.270874-41.860351-10.450928-62.858887-7.866088-51.943847-15.549804-103.915527-23.142089-155.900146-7.304078-50.011963-14.28479-100.070801-21.623169-150.077637-7.241211-49.345703-14.838868-98.63916-22.118286-147.979248-6.018555-40.793213-11.730835-81.631103-17.707886-122.43042-5.880005-40.136474-11.991944-80.238525-17.868653-120.375488-3.757324-25.661621-7.272705-51.358399-10.818969-80.417725-3.656616-29.149658-7.299195-54.935302-11.195923-80.682373-.867798-5.734131-2.629639-11.333008-3.285523-18.18042c38.265503-21.310302,75.337159-42.447754,113.543457-61.283447c41.191895-20.307617,83.049805-39.39624,125.343506-57.301025c45.958008-19.455811,92.318848-38.142578,139.276123-55.015869c84.58667-30.394776,170.657227-56.138672,258.39795-75.910157c39.556152-8.913574,79.195556-17.620849,119.07666-24.886474c41.17041-7.5,82.640869-13.406494,124.061035-19.455811c17.088623-2.495361,34.378906-3.642822,51.593994-5.22583c17.876465-1.643799,35.841553-2.514893,53.644775-4.718018c32.385743-4.007812,64.968018-6.138671,97.471192-6.535888c78.576416-.959961,157.211914-3.839844,235.72876,2.86206c26.505859,2.262207,53.114013,3.327393,79.67456,4.953614c1.994385.12207,3.988037.30542,5.97168.546386c18.460449,2.2417,36.916992,4.512452,55.377197,6.755371c25.071045,3.046631,50.261475,5.333497,75.187012,9.292237c34.774414,5.522949,69.370605,12.182373,104.008056,18.546142c92.354004,16.967041,183.16211,40.226319,272.804444,68.016358c73.161377,22.680664,145.206299,48.530761,215.977539,77.903564c17.173096,7.127197,34.737305,13.311768,52.121582,19.929688c3.530762,3.527343,4.217529,7.800049,3.467285,12.54834-1.211426,7.66748-2.300049,15.354492-5.211914,24.894043-4.796631,5.286621-8.19165,8.454833-10.785889,12.180908-15.560058,22.347412-30.815918,44.906738-46.418213,67.224121-9.500244,13.589111-19.301025,26.974853-29.211669,40.269287-19.025635,25.520264-37.934571,51.135986-57.453126,76.276367-13.418212,17.283203-27.623046,33.967285-41.77539,50.665527-10.729492,12.659913-22.211914,24.685059-32.864014,37.407471-20.468017,24.445801-41.427978,48.412354-63.580078,71.373535-18.917725,19.608887-40.343506,36.87378-56.105469,59.483155-1.470703,2.109863-3.954345,3.519043-5.988525,5.229004-5.579102,4.688964-11.617676,8.927001-16.681152,14.117431-29.754151,30.500733-60.791504,59.641113-92.456055,88.130127-.990234.891113-1.871338,1.9104-2.898682,2.753418-21.520263,17.667969-43.014404,35.368408-64.596679,52.960449-21.072998,17.176758-42.115479,34.394532-63.389405,51.320313-41.048095,32.658203-84.068603,62.639892-127.259521,92.33374-41.06958,28.235107-83.720459,54.007568-126.422852,79.721924-41.605469,25.053467-83.911621,48.79956-127.034179,71.034912-55.582032,28.660156-111.989991,55.647949-169.949219,79.272461-33.219483,13.540039-66.076416,28.01123-99.570557,40.824707-41.541992,15.89209-83.774902,29.911133-126.068847,43.715332-41.651856,13.594727-83.588135,26.175781-126.39209,35.376465.516357-10.450684-1.817139-18.714844-4.817627-26.916992-20.896485-57.122559-54.639893-105.178711-103.354737-141.665039-79.760254-59.739258-168.273193-78.094239-264.303955-49.364258-72.431396,21.67041-128.001953,66.723633-168.272094,130.65332-3.900879,6.192871-7.769654,12.405762-11.653443,18.609375Z" fill="#f99732"/><g id="efN8G7lAPSa6"><g><path d="M2335.893555,2595.314941c-61.898438-160.250488-123.789063-320.503906-185.698243-480.750244-29.994628-77.639038-60.01831-155.266723-90.048583-232.891968-2.138428-5.527587-4.44043-10.991577-6.96045-17.211303-4.212402-.448242-8.060791-1.090332-11.927978-1.236084-236.522339-8.91272-447.758301-87.974243-635.901367-230.197876-52.872193-39.967774-99.749024-86.325928-138.407227-140.513794-24.529785-34.383911-44.32019-71.133667-56.392822-111.873047-19.940186-67.288574-10.836182-130.412231,26.398315-189.629395c22.974854-36.539062,52.952515-66.723022,86.347779-93.649536c39.579711-31.913208,82.759155-58.272949,127.814331-81.629089c79.483032-41.203247,162.85559-72.792664,248.063842-99.748413c106.150269-33.580872,214.22937-59.397339,323.49646-80.560364c78.495728-15.203186,157.383179-27.937195,236.638306-38.232361c70.685791-9.181884,141.595703-16.386779,212.678467-22.094299c118.337402-9.501831,236.814453-13.841614,355.509277-12.673279c79.999512.787415,159.89624,4.377808,239.619629,10.806885c88.984619,7.176025,177.67334,17.133972,266.035156,30.132812c138.499024,20.374451,275.574951,47.483216,410.587403,84.628968c97.065429,26.705383,192.42749,58.359863,284.354004,99.727905c66.394775,29.878662,130.283447,64.132446,188.000732,109.000977c27.988769,21.757934,53.855957,45.72705,75.806152,73.67163c26.72461,34.02295,46.313965,71.35608,53.467285,114.621827c5.776368,34.93396,2.309571,68.974975-7.884277,102.622558-10.741211,35.450318-28.108887,67.549317-49.212891,97.742676-31.135253,44.544556-68.659667,83.220581-109.963867,118.295166-67.409179,57.242187-140.499511,105.687012-221.687988,141.300293-63.30835,27.770142-129.470703,44.582886-198.248047,51.863281-29.927246,3.167969-59.834228,3.62439-89.821289,3.656738-6.564453.007081-13.128906.000977-20.213623.000977-2.400879,6.519775-4.672607,12.002564-6.459717,17.639038-79.286377,250.047974-158.529785,500.109497-237.775879,750.170288-.804931,2.540283-1.573486,5.092041-4.198486,9.208008-19.242676-2.143311-36.580078-6.206299-54.0625-9.49707-38.862061-7.315918-77.796875-14.245117-116.569824-22.897217c3.444092-42.718994,6.883789-83.862549,10.040527-125.028076c5.396973-70.385742,10.616211-140.784912,15.911377-211.178467c5.345459-71.056152,10.765137-142.107178,16.016602-213.170288c4.614013-62.431152,8.975341-124.88086,13.582275-187.3125c1.813232-24.571655,4.031494-49.113281,5.936279-73.678589.19336-2.495605-.505615-5.060425-.853759-8.157349-5.994385-2.194824-11.516846-4.34375-17.121827-6.249878-100.131103-34.052002-194.234863-80.440918-282.760254-138.219238-50.838134-33.180664-99.09375-69.783203-145.003417-109.512695-4.234131-3.664307-7.489991-9.791992-15.39087-8.682495-3.811767,4.94165-7.916992,10.151855-11.904785,15.450317-41.414795,55.02832-88.10498,105.125977-140.14917,150.245606-69.404785,60.170532-145.798584,109.468139-229.293213,147.774292-5.899902,2.706909-11.568847,5.917846-18.006591,9.235229c2.479003,24.084473,4.740234,47.223145,7.26538,70.332886c4.701172,43.022217,9.594971,86.023315,14.334229,129.041504c3.28125,29.784424,6.371338,59.589966,9.66626,89.372924c4.685791,42.351075,9.55249,84.682618,14.208496,127.036866c4.58374,41.696533,8.946777,83.417236,13.50708,125.116455c4.921875,45.007812,9.921142,90.006836,14.961426,135.001465c3.483154,31.095459,7.092773,62.176513,9.230957,93.813476-31.822754,6.854492-62.282227,12.924561-92.624268,19.532959-28.376221,6.180176-56.628174,12.931397-84.934814,19.430908M1413.983032,1572.079468c66.285156,55.571899,139.317017,100.466553,217.456543,137.24353c111.278076,52.373901,227.778076,86.558716,350.43982,97.489868c80.690185,7.190674,161.167968,3.276856,240.842041-12.253174c121.937988-23.76831,233.925293-71.21875,337.061767-140.474975c37.613526-25.257691,69.563233-55.695923,96.386719-91.905274c66.665527-89.992431,115.270752-188.369506,139.141846-298.349121c5.245849-24.169677,8.791992-48.329345,8.479003-73.203369-.44458-35.318237.28125-70.655029.746338-105.980591c1.079834-81.979309,2.32544-163.956421,3.427735-245.935424.096191-7.157471-.367188-14.322388-.599854-22.506348-7.767822-.326294-14.27124-.826416-20.775879-.838135-79.336425-.142517-158.569824,2.411743-237.762939,7.478333-75.824219,4.851074-151.44458,11.512878-226.912598,20.274902-74.123535,8.606018-147.904541,19.374634-221.446777,31.999451-104.432861,17.927734-207.831177,40.42865-309.899048,68.897338-95.076904,26.518738-188.34082,58.165528-277.792358,100.270264-53.787354,25.317749-105.466187,54.257935-152.310425,91.18335-26.276734,20.71289-50.275757,43.734619-70.017212,70.930542-13.010864,17.923706-23.387329,37.223022-30.04126,58.391113-12.324219,39.206787-7.988891,77.677368,5.664917,115.608032c11.843506,32.901612,29.638184,62.529297,50.526001,90.386963c27.730469,36.983521,60.093018,69.548706,97.38562,101.292725M2882.994629,816.348999c-3.108643.495728-6.217041.991394-9.901123,1.578857-.405518,7.601868-.88916,14.158082-1.07959,20.72284-.54126,18.654541-.860596,37.315796-1.449707,55.968628-2.44043,77.270447-5.026855,154.536438-7.321777,231.811218-.25586,8.61145.326416,17.376465,1.683593,25.884644c5.668213,35.530273,13.014405,70.706665,22.971924,105.326049c36.303955,126.215943,101.822266,233.920166,202.404297,319.32251c8.551025,7.260498,18.077149,13.672485,27.931885,19.04419c36.294433,19.784057,73.832031,37.025268,112.284912,52.178588c92.566162,36.478394,187.992432,63.476929,285.428955,82.955689c76.749512,15.34314,154.288818,21.43811,232.614014,13.436645c56.68164-5.790161,111.631103-18.325195,164.699218-38.979736c68.216797-26.550415,129.98462-64.41687,188.319336-108.176147c44.939942-33.710938,86.46875-71.112915,122.227051-114.623536c24.684571-30.036743,45.816406-62.287597,59.248535-99.010009c11.897461-32.526001,16.565918-65.856812,8.325196-100.100098-6.814942-28.31958-20.229493-53.44104-37.84375-76.453369-21.23584-27.743897-46.775879-51.05249-74.46045-72.125488-53.339355-40.600953-112.050781-71.872193-172.992675-99.212159-101.784912-45.663024-207.738282-79.156433-315.450928-107.376159-85.071045-22.287781-171.031006-40.713501-257.698975-55.467346-62.360351-10.615967-124.947021-20.194336-187.699463-28.127503-58.798584-7.433411-117.934326-12.231262-176.946045-17.939331-60.385986-5.841186-120.993408-8.088867-185.294433-10.638977Z" fill="#03aa92"/><path d="M1412.902344,1571.160645c-36.211914-30.825196-68.574463-63.390381-96.304932-100.373902-20.887817-27.857666-38.682495-57.485351-50.526001-90.386963-13.653808-37.930664-17.989136-76.401245-5.664917-115.608032c6.653931-21.168091,17.030396-40.467407,30.04126-58.391113c19.741455-27.195923,43.740478-50.217652,70.017212-70.930542c46.844238-36.925415,98.523071-65.865601,152.310425-91.18335c89.451538-42.104736,182.715454-73.751526,277.792358-100.270264c102.067871-28.468688,205.466187-50.969604,309.899048-68.897338c73.542236-12.624817,147.323242-23.393433,221.446777-31.999451c75.468018-8.762024,151.088379-15.423828,226.912598-20.274902c79.193115-5.06659,158.426514-7.62085,237.762939-7.478333c6.504639.011719,13.008057.511841,20.775879.838135.232666,8.18396.696045,15.348877.599854,22.506348-1.102295,81.979003-2.347901,163.956115-3.427735,245.935424-.465088,35.325562-1.190918,70.662354-.746338,105.980591.312989,24.874024-3.233154,49.033692-8.479003,73.203369-23.871094,109.979615-72.476319,208.35669-139.141846,298.349121-26.823486,36.209351-58.773193,66.647583-96.386719,91.905274-103.136474,69.256225-215.123779,116.706665-337.061767,140.474975-79.674073,15.53003-160.151856,19.443848-240.842041,12.253174-122.661744-10.931152-239.161744-45.115967-350.43982-97.489868-78.139526-36.776977-151.171387-81.671631-218.537231-138.162353m910.339355-458.258667c-66.71875-63.372559-145.879394-87.578003-235.228027-67.07251-188.56836,43.276245-260.283203,266.942871-137.080444,413.008545c20.263549,24.023681,43.691284,44.611816,74.520507,59.822143c53.942261,28.199097,111.033326,36.997193,170.407349,24.230225c186.196045-40.037232,265.234863-257.234741,147.676025-407.67334-5.648193-7.227783-12.805175-13.276733-20.29541-22.315063Z" fill="#feffff"/><path d="M2884.852539,816.353882c62.443115,2.545227,123.050537,4.792908,183.436523,10.634094c59.011719,5.708069,118.147461,10.50592,176.946045,17.939331c62.752442,7.933167,125.339112,17.511536,187.699463,28.127503c86.667969,14.753845,172.62793,33.179565,257.698975,55.467346c107.712646,28.219726,213.666016,61.713135,315.450928,107.376159c60.941894,27.339966,119.65332,58.611206,172.992675,99.212159c27.684571,21.072998,53.22461,44.381591,74.46045,72.125488c17.614257,23.012329,31.028808,48.133789,37.84375,76.453369c8.240722,34.243286,3.572265,67.574097-8.325196,100.100098-13.432129,36.722412-34.563964,68.973266-59.248535,99.010009-35.758301,43.510621-77.287109,80.912598-122.227051,114.623536-58.334716,43.759277-120.102539,81.625732-188.319336,108.176147-53.068115,20.654541-108.017578,33.189575-164.699218,38.979736-78.325196,8.001465-155.864502,1.906495-232.614014-13.436645-97.436523-19.47876-192.862793-46.477295-285.428955-82.955689-38.452881-15.15332-75.990479-32.394531-112.284912-52.178588-9.854736-5.371705-19.38086-11.783692-27.931885-19.04419-100.582031-85.402344-166.100342-193.106567-202.404297-319.32251-9.957519-34.619384-17.303711-69.795776-22.971924-105.326049-1.357177-8.508179-1.939453-17.273194-1.683593-25.884644c2.294922-77.27478,4.881347-154.540771,7.321777-231.811218.589111-18.652832.908447-37.314087,1.449707-55.968628.19043-6.564758.674072-13.120972,1.07959-20.72284c3.684082-.587463,6.79248-1.083129,11.759033-1.573974m753.703125,261.965698c-3.901123-3.626221-7.654053-7.429077-11.725586-10.852417-61.755859-51.919617-132.708496-72.967285-212.106201-58.424133-144.705322,26.50531-222.249268,159.030334-207.617676,277.306701c10.71875,86.648316,54.232422,151.452027,129.358643,195.361817c2.225342,1.300903,4.907226,1.820312,9.021972,4.959717c52.434082,26.147461,107.425538,33.107055,164.817627,21.910644c129.767823-25.315918,216.635498-148.368042,202.66626-274.957153-6.109131-55.363648-27.383545-103.626221-64.344726-145.093994-2.595704-2.912354-5.885987-5.205689-10.070313-10.211182Z" fill="#fefffe"/><path d="M2023.850708,1516.401123c-29.226196-12.951294-52.653931-33.539429-72.91748-57.56311-123.202759-146.065674-51.487916-369.7323,137.080444-413.008545c89.348633-20.505493,168.509277,3.699951,235.655273,70.192383-.291259,22.237304,1.790284,41.420044-3.263427,60.416015-2.853028,10.725708-3.215332,22.121704-4.591309,33.229248-.638916,5.157593-3.60498,8.36023-9.559814,10.237549-12.864991-6.06665-25.266358-8.495117-37.708497-10.27417-12.766601-1.825439-25.168212.775879-36.612304,6.559326-11.151856,5.635987-19.092774,17.585327-9.601807,33.309815c6.515381,10.79541,16.428467,17.098877,27.307617,22.228393c13.364991,6.301636,27.775879,8.47229,42.294678,11.258667-4.966553,18.855713-14.907715,33.742432-23.802246,49.25708-15.927979,27.781983-35.049316,52.946045-57.774658,75.46399-9.42627,9.340698-19.712891,17.631836-29.750489,26.259765-21.27246,18.284912-44.266601,33.592041-69.149658,46.29895-26.623047,13.595459-53.741211,25.869385-83.117676,32.436646-1.687377.377197-3.001098,2.426758-4.488647,3.697998Z" fill="#01735d"/><path d="M2307.733398,1220.144531c4.475831-2.117187,7.441895-5.319824,8.080811-10.477417c1.375977-11.107544,1.738281-22.50354,4.591309-33.229248c5.053711-18.995971,2.972168-38.178711,3.781494-59.195923c6.544922,4.698365,13.701904,10.747315,19.350097,17.975098c117.558838,150.438599,38.52002,367.636108-147.676025,407.67334-59.374023,12.766968-116.465088,3.968872-171.208862-25.359741.686035-2.400757,1.999756-4.450318,3.687133-4.827515c29.376465-6.567261,56.494629-18.841187,83.117676-32.436646c24.883057-12.706909,47.877198-28.014038,69.149658-46.29895c10.037598-8.627929,20.324219-16.919067,29.750489-26.259765c22.725342-22.517945,41.846679-47.682007,57.774658-75.46399c8.894531-15.514648,18.835693-30.401367,25.406982-49.646972c8.739746-3.214478,16.194092-3.68335,22.867188-6.213745c19.895752-7.544556,23.673096-24.765015,9.351318-40.86377-3.059814-3.439331-6.758301-6.327026-10.274902-9.337524-2.484863-2.127198-5.15918-4.032715-7.749024-6.037232Z" transform="translate(0 0.000001)" fill="#038269"/><path d="M3343.841064,1484.415649c-2.468994-.883789-5.150878-1.403198-7.37622-2.704101-75.126221-43.90979-118.639893-108.713501-129.358643-195.361817-14.631592-118.276367,62.912354-250.801391,207.617676-277.306701c79.397705-14.543152,150.350342,6.504516,212.106201,58.424133c4.071533,3.42334,7.824463,7.226196,12.386231,13.864868c2.490722,34.080323-3.208497,64.465698-8.033692,94.88794-1.526123,9.62268-4.853515,18.959594-8.82373,28.108154-10.751221-3.742187-19.796143-8.271729-29.372315-10.34082-16.311035-3.524659-32.888183-4.159058-48.468261,3.779785-16.660157,8.489014-19.686036,22.812256-7.803711,37.462524c7.637451,9.41626,17.048339,16.870484,28.734619,20.402588c11.346435,3.429444,23.025879,5.757324,34.403808,9.994263-6.664062,19.030273-17.628662,34.077392-27.271484,49.957153-9.723145,16.011963-20.544434,30.860352-33.992188,43.827759-16.70996,16.113037-32.324951,33.275757-51.005615,47.431885-17.487549,13.252075-35.257324,25.949951-54.42456,36.512085-24.486817,13.493652-50.48584,23.620849-77.126465,32.004028-5.348633,1.682983-10.015381,3.478516-12.191651,9.056274Z" fill="#01735d"/><path d="M3623.826172,1204.647461c2.50293-9.467896,5.830322-18.80481,7.356445-28.42749c4.825195-30.422242,10.524414-60.807617,8.64209-93.675904c2.915283.781006,6.205566,3.074341,8.80127,5.986695c36.961181,41.467773,58.235595,89.730346,64.344726,145.093994c13.969238,126.589111-72.898437,249.641235-202.66626,274.957153-57.392089,11.196411-112.383545,4.236817-165.640381-23.038452c1.353272-6.705566,6.02002-8.501099,11.368653-10.184082c26.640625-8.383179,52.639648-18.510376,77.126465-32.004028c19.167236-10.562134,36.937011-23.26001,54.42456-36.512085c18.680664-14.156128,34.295655-31.318848,51.005615-47.431885c13.447754-12.967407,24.269043-27.815796,33.992188-43.827759c9.642822-15.879761,20.607422-30.92688,28.885742-50.195068c9.464111-2.983521,17.375977-3.598755,24.775391-5.87732c4.76831-1.468261,9.332519-4.802612,13.024414-8.313476c7.64917-7.274292,9.027832-15.693604,3.95874-24.936524-2.767334-5.045654-6.905273-9.400146-10.768066-13.762817-2.563233-2.894897-5.733399-5.252685-8.631592-7.850952Z" fill="#028269"/></g><path d="M2306.254395,1219.904663c4.068847,2.244385,6.743164,4.149902,9.228027,6.2771c3.516601,3.010498,7.215088,5.898193,10.274902,9.337524c14.321778,16.098755,10.544434,33.319214-9.351318,40.86377-6.673096,2.530395-14.127442,2.999267-22.829834,4.800293-16.160889-.983033-30.571777-3.153687-43.936768-9.455323-10.87915-5.129516-20.792236-11.432983-27.307617-22.228393-9.490967-15.724488-1.550049-27.673828,9.601807-33.309815c11.444092-5.783447,23.845703-8.384765,36.612304-6.559326c12.442139,1.779053,24.843506,4.20752,37.708497,10.27417Z" fill="#97bab2"/><path d="M3622.358887,1204.328125c4.365478,2.917603,7.535644,5.275391,10.098877,8.170288c3.862793,4.362671,8.000732,8.717163,10.768066,13.762817c5.069092,9.24292,3.69043,17.662232-3.95874,24.936524-3.691895,3.510864-8.256104,6.845215-13.024414,8.313476-7.399414,2.278565-15.31128,2.893799-24.620117,4.452149-13.147461-2.573853-24.826905-4.901733-36.17334-8.331177-11.68628-3.532104-21.097168-10.986328-28.734619-20.402588-11.882325-14.650268-8.856446-28.97351,7.803711-37.462524c15.580078-7.938843,32.157226-7.304444,48.468261-3.779785c9.576172,2.069091,18.621094,6.598633,29.372315,10.34082Z" fill="#96bab1"/></g><path d="M2334.25293,2595.973389c29.947265-7.157959,58.199218-13.90918,86.575439-20.089356c30.342041-6.608398,60.801514-12.678467,94.371338-19.368896c56.324219-8.771485,109.51709-16.78418,163.133545-21.975098c49.64331-4.806152,99.328369-8.807129,149.167969-10.154785c77.134277-2.085449,154.270996-1.594971,231.254883,4.271484c34.445556,2.624512,68.804687,6.444824,103.168701,10.050782c22.438232,2.354003,44.814697,5.297607,67.21875,7.977539c38.905029,7.08667,77.839843,14.015869,116.701904,21.331787c17.482422,3.290771,34.819824,7.353759,53.550293,10.983886c37.24707,9.31958,73.236816,18.462159,109.071777,28.177002c79.445069,21.536621,157.197266,48.165039,234.635498,81.274414-.894043,17.199952-2.695312,31.638672-4.578369,46.066895-2.137939,16.381348-4.368408,32.750732-6.521728,49.130127-1.896241,14.425293-3.706787,28.86206-5.619873,43.285156-2.08545,15.724365-4.437012,31.415528-6.317139,47.163819-1.804688,15.115722-2.136719,30.479492-4.96875,45.38208-3.344482,17.601562-4.443848,35.414062-7.070068,53.061035-2.04419,13.737793-3.528565,27.558349-5.280274,41.340088-2.25,17.699218-4.48706,35.400634-6.804199,53.091308-.499512,3.813233-1.317871,7.584473-1.880371,10.759766-6.920899,3.22876-12.554932,2.032715-18.446045.140625-18.961914-6.090576-37.922119-12.234375-57.085205-17.639893-29.33374-8.273925-58.680664-16.597412-88.308106-23.708008-33.46875-8.032714-67.183838-15.092773-100.921386-21.936279-32.404297-6.573486-64.843506-13.189697-97.515869-18.151367-22.852051-3.470459-45.570069-8.720215-68.894043-8.692627-11.361573-5.021728-23.677979-2.695068-35.425538-4.619629-21.561279-3.533447-43.242919-5.554687-65.007812-7.454101-22.493897-1.962891-44.895752-4.369629-67.509522-4.008301-1.933593.031006-3.860595-.987549-5.826416-1.246338-6.551757-.862305-13.118652-2.270996-19.682373-2.28418-78.64624-.158447-157.292724-.109375-235.939209-.083252-3.991211.001221-8.317138-.658935-11.91455.61084-13.644532,4.817627-27.68042,2.879639-41.581299,3.344238-6.6521.222412-13.661377-.803222-19.888428.945801-20.062988,5.633789-40.915039,2.048584-61.188965,6.597168-16.014648,3.593506-32.923095,3.029053-49.350342,5.008301-17.050537,2.054687-33.992675,4.99585-50.995849,7.457519-11.787598,1.706788-23.681885,2.802002-35.380127,4.970948-25.360596,4.702881-50.657227,9.766113-75.921875,14.965088-29.812256,6.134521-59.622315,12.303222-89.318359,18.970459-18.107422,4.064941-36.106934,8.712402-53.963624,13.772949-40.841064,11.575195-81.691406,23.149658-122.292724,35.528564-27.966309,8.526612-55.442871,18.650635-83.318604,27.491211-6.657715,2.111328-12.434814,7.831787-20.512451,6.300293-1.798096-4.753174-3.969726-8.953369-4.974609-13.41626-4.360596-19.372802-8.365967-38.825439-12.528565-58.243164-8.047363-37.540771-16.041015-75.093261-24.203613-112.609131-3.801758-17.473388-8.087891-34.841552-11.904785-52.312011-7.909912-36.206299-15.765137-72.425049-23.42334-108.685303-4.651977-22.027344-8.893188-44.141602-13.318848-66.216797c27.608887-11.446533,54.966553-23.550537,82.876221-34.209961c69.681397-26.614013,140.628906-49.417724,212.70874-68.661377c3.209717-.856689,6.340332-2.010742,11.148194-3.685058Z" fill="#cd2054"/><path d="M3794.383301,4303.490234c-13.942139-20.624511-27.803467-42.551757-45.277344-62.01123-51.057373-56.859863-114.301025-91.766113-190.128906-100.367188-83.631104-9.485839-158.265625,14.587403-222.760498,68.747559-36.299805,30.48291-63.7146,67.864258-83.217041,111.105957-4.479737,9.932617-6.86792,19.917969-6.36084,30.917969.798096,17.306152.744385,34.651855.748779,53.783691-34.96289,2.33252-69.626709,2.696778-104.282959,3.427246-57.304687,1.208008-114.604248,2.639649-171.905762,3.999024-55.30249,1.312011-110.604248,2.653808-165.906494,3.979004-55.305175,1.325683-110.610351,2.63916-165.915283,3.970214-60.633545,1.459473-121.266357,2.932129-183.637695,4.459961-1.49585-19.358886-1.253906-38.77832-.610108-59.816894c42.868653-12.412598,84.804932-24.993652,126.456788-38.588379c42.293945-13.804199,84.526855-27.823242,126.068847-43.715332c33.494141-12.813477,66.351074-27.284668,99.570557-40.824707c57.959228-23.624512,114.367187-50.612305,169.949219-79.272461c43.122558-22.235352,85.42871-45.981445,127.034179-71.034912c42.702393-25.714356,85.353272-51.486817,126.422852-79.721924c43.190918-29.693848,86.211426-59.675537,127.259521-92.33374c21.273926-16.925781,42.316407-34.143555,63.389405-51.320313c21.582275-17.592041,43.076416-35.29248,64.596679-52.960449c1.027344-.843018,1.908448-1.862305,2.898682-2.753418c31.664551-28.489014,62.701904-57.629394,92.456055-88.130127c5.063476-5.19043,11.10205-9.428467,16.681152-14.117431c2.03418-1.709961,4.517822-3.119141,5.988525-5.229004c15.761963-22.609375,37.187744-39.874268,56.105469-59.483155c22.1521-22.961181,43.112061-46.927734,63.580078-71.373535c10.6521-12.722412,22.134522-24.747558,32.864014-37.407471c14.152344-16.698242,28.357178-33.382324,41.77539-50.665527c19.518555-25.140381,38.427491-50.756103,57.453126-76.276367c9.910644-13.294434,19.711425-26.680176,29.211669-40.269287c15.602295-22.317383,30.858155-44.876709,46.418213-67.224121c2.594239-3.726075,5.989258-6.894287,10.277344-10.629639-4.348877,39.21582-9.878662,78.753418-15.595215,118.263672-5.910156,40.848877-12.023681,81.668701-18.006592,122.50708-5.886474,40.180908-11.696533,80.373291-17.584961,120.553955-7.529296,51.376465-15.119628,102.743897-22.652587,154.119873-5.698487,38.86499-11.3125,77.741943-17.026368,116.604492-7.649902,52.031006-15.330078,104.057862-23.053466,156.077881-7.430176,50.045166-14.969239,100.073487-22.385254,150.120361-3.513428,23.71045-6.852783,47.44629-10.89917,72.888672Z" fill="#e57425"/><path d="M2026.024902,2702.752441c5.920533,21.852539,10.161744,43.966797,14.813721,65.994141c7.658203,36.260254,15.513428,72.479004,23.42334,108.685303c3.816894,17.470459,8.103027,34.838623,11.904785,52.312011c8.162598,37.51587,16.15625,75.06836,24.203613,112.609131c4.162598,19.417725,8.167969,38.870362,12.528565,58.243164c1.004883,4.462891,3.176513,8.663086,4.974609,13.41626c8.077637,1.531494,13.854736-4.188965,20.512451-6.300293c27.875733-8.840576,55.352295-18.964599,83.318604-27.491211c40.601318-12.378906,81.45166-23.953369,122.292724-35.528564c17.85669-5.060547,35.856202-9.708008,53.963624-13.772949c29.696044-6.667237,59.506103-12.835938,89.318359-18.970459c25.264648-5.198975,50.561279-10.262207,75.921875-14.965088c11.698242-2.168946,23.592529-3.26416,35.380127-4.970948c17.003174-2.461669,33.945312-5.402832,50.995849-7.457519c16.427247-1.979248,33.335694-1.414795,49.350342-5.008301c20.273926-4.548584,41.125977-.963379,61.188965-6.597168c6.227051-1.749023,13.236328-.723389,19.888428-.945801c13.900879-.464599,27.936767,1.473389,41.581299-3.344238c3.597412-1.269775,7.923339-.609619,11.91455-.61084c78.646485-.026123,157.292969-.075195,235.939209.083252c6.563721.013184,13.130616,1.421875,19.682373,2.28418c1.965821.258789,3.892823,1.277344,5.826416,1.246338c22.61377-.361328,45.015625,2.04541,67.509522,4.008301c21.764893,1.899414,43.446533,3.920654,65.007812,7.454101c11.747559,1.924561,24.063965-.402099,35.425538,4.619629c23.323974-.027588,46.041992,5.222168,68.894043,8.692627c32.672363,4.96167,65.111572,11.577881,97.515869,18.151367c33.737548,6.843506,67.452636,13.903565,100.921386,21.936279c29.627442,7.110596,58.974366,15.434083,88.308106,23.708008c19.163086,5.405518,38.123291,11.549317,57.085205,17.639893c5.891113,1.89209,11.525146,3.088135,18.446045-.140625.5625-3.175293,1.380859-6.946533,1.880371-10.759766c2.317139-17.690674,4.554199-35.39209,6.804199-53.091308c1.751709-13.781739,3.236084-27.602295,5.280274-41.340088c2.62622-17.646973,3.725586-35.459473,7.070068-53.061035c2.832031-14.902588,3.164062-30.266358,4.96875-45.38208c1.880127-15.748291,4.231689-31.439454,6.317139-47.163819c1.913086-14.423096,3.723632-28.859863,5.619873-43.285156c2.15332-16.379395,4.383789-32.748779,6.521728-49.130127c1.883057-14.428223,3.684326-28.866943,5.552979-45.039063c18.196045,5.309815,36.360595,12.357911,55.327148,22.214356-2.126221,28.393799-3.782959,54.218018-8.54126,79.458008-2.231445,11.836181-1.987304,23.683105-4.141601,35.414062-2.973877,16.196778-4.570801,32.647461-6.711914,48.995362-1.885254,14.397216-3.658692,28.809326-5.572022,43.20288-2.085693,15.690186-4.480957,31.341553-6.360107,47.055664-1.803711,15.083497-2.667481,30.288331-4.752197,45.327637-3.348877,24.15918-7.411377,48.218506-11.070069,72.335694-1.246338,8.214599,1.668701,14.223144,9.719971,17.481689c8.598633,3.47998,17.063965,7.288574,25.628906,10.854492c29.367188,12.227295,58.742188,24.43628,88.133789,36.604492c25.722168,10.648926,51.470459,21.233887,77.207276,31.847168-2.756592,23.211914-5.513184,46.423584-8.687745,71.362305-17.802001-4.891113-35.36621-11.075684-52.539306-18.202881-70.77124-29.372803-142.816162-55.2229-215.977539-77.903564-89.642334-27.790039-180.45044-51.049317-272.804444-68.016358-34.637451-6.363769-69.233642-13.023193-104.008056-18.546142-24.925537-3.95874-50.115967-6.245606-75.187012-9.292237-18.460205-2.242919-36.916748-4.513671-55.377197-6.755371-1.983643-.240966-3.977295-.424316-5.97168-.546386-26.560547-1.626221-53.168701-2.691407-79.67456-4.953614-78.516846-6.701904-157.152344-3.822021-235.72876-2.86206-32.503174.397217-65.085449,2.528076-97.471192,6.535888-17.803222,2.203125-35.76831,3.074219-53.644775,4.718018-17.215088,1.583008-34.505371,2.730469-51.593994,5.22583-41.420166,6.049317-82.890625,11.955811-124.061035,19.455811-39.881104,7.265625-79.520508,15.9729-119.07666,24.886474-87.740723,19.771485-173.81128,45.515381-258.39795,75.910157-46.957275,16.873291-93.318115,35.560058-139.276123,55.015869-42.293701,17.904785-84.151611,36.993408-125.343506,57.301025-38.206298,18.835693-75.277954,39.973145-114.488037,61.297607-1.638794,1.20044-3.527832,1.118409-3.527832,1.118409-3.992553-24.21045-7.985229-48.420899-10.369384-74.477295c5.835571-3.765381,10.141601-5.529053,14.278442-7.626709c87.706421-44.476807,175.398926-88.981201,263.069458-133.528809c4.073242-2.06958,7.919067-4.58667,11.421875-6.633056c4.879028-16.399903-1.515747-31.194581-3.678345-45.938965-5.071411-34.576905-12.483154-68.809815-18.912475-103.188477-3.881104-20.752197-7.702393-41.515625-11.540284-62.275879-4.080078-22.070801-8.21228-44.132324-12.201782-66.219482-3.751953-20.77124-7.725464-41.513184-10.908569-62.37378-3.385132-22.184814-9.68457-43.95581-9.721192-66.627441c17.661377-8.052002,35.322754-16.10376,54.479004-24.37793Z" fill="#b01f40"/><path d="M1970.087158,2727.326172c1.495362,22.47583,7.7948,44.246826,11.179932,66.43164c3.183105,20.860596,7.156616,41.60254,10.908569,62.37378c3.989502,22.087158,8.121704,44.148681,12.201782,66.219482c3.837891,20.760254,7.65918,41.523682,11.540284,62.275879c6.429321,34.378662,13.841064,68.611572,18.912475,103.188477c2.162598,14.744384,8.557373,29.539062,3.678345,45.938965-3.502808,2.046386-7.348633,4.563476-11.421875,6.633056-87.670532,44.547608-175.363037,89.052002-263.069458,133.528809-4.136841,2.097656-8.442871,3.861328-14.072876,5.967773-5.511841-23.354736-9.866333-46.856445-13.681152-70.445801-9.121094-56.403076-18.050049-112.837402-26.939454-169.277587-8.163452-51.830811-16.174194-103.685547-24.410156-156.542481c3.31543-2.655029,6.59253-5.832275,10.368042-8.22168c87.739502-55.526367,178.692749-105.123779,274.805542-148.070312Z" fill="#cd2155"/><path d="M3953.748047,3178.918701c-26.539307-9.260498-52.287598-19.845459-78.009766-30.494385-29.391601-12.168212-58.766601-24.377197-88.133789-36.604492-8.564941-3.565918-17.030273-7.374512-25.628906-10.854492-8.05127-3.258545-10.966309-9.26709-9.719971-17.481689c3.658692-24.117188,7.721192-48.176514,11.070069-72.335694c2.084716-15.039306,2.948486-30.24414,4.752197-45.327637c1.87915-15.714111,4.274414-31.365478,6.360107-47.055664c1.91333-14.393554,3.686768-28.805664,5.572022-43.20288c2.141113-16.347901,3.738037-32.798584,6.711914-48.995362c2.154297-11.730957,1.910156-23.577881,4.141601-35.414062c4.758301-25.23999,6.415039-51.064209,9.487549-78.444092c4.522705-.308594,9.028321.881592,13.259522,2.708496c59.846679,25.839356,118.32959,54.493652,175.665527,85.492188c4.582031,2.477294,8.8479,5.538818,13.845703,8.69873-16.233887,122.981689-32.402832,245.469971-49.373779,369.311035Z" fill="#cd2155"/><path id="efN8G7lAPSa22" d="M1902.253906,4295.162109c4.421875-7.575683,8.29065-13.788574,12.191529-19.981445c40.270141-63.929687,95.840698-108.98291,168.272094-130.65332c96.030762-28.729981,184.543701-10.375,264.303955,49.364258c48.714844,36.486328,82.458252,84.54248,103.354737,141.665039c3.000488,8.202148,5.333984,16.466308,4.415771,28.535644-.30664,22.631836-.548584,42.05127-.790527,61.471192-.442871,7.294921-1.173828,14.584961-1.286133,21.884765-2.271973,147.936524-4.484131,295.873047-6.683594,443.810059-1.020263,68.637695-1.907715,137.277832-3.008789,205.914062-.748535,46.64502-1.742676,93.286133-2.696533,139.927246-.078857,3.856446-.689941,7.702637-1.135742,12.421387-5.232422.466797-9.738526,1.151856-14.254883,1.230469-169.502686,2.956055-491.473999,2.699219-512.538696-.549805-.264283-2.849121-.719361-6.010254-.82666-9.183105-.968506-28.63916-2.044068-57.276367-2.768677-85.922364-1.921265-75.94873-3.588745-151.904296-5.530884-227.852539-2.725708-106.592285-5.57373-213.18164-8.434692-319.770019-2.270874-84.604004-4.280396-169.21875-7.253052-253.79834-.632568-17.995117,2.407837-34.263672,11.003296-49.791016c1.283203-2.316894,2.098144-4.893554,3.66748-8.722168Z" transform="matrix(.347322 0.33486-.694073 0.719905 4028.600512-500.625127)" fill="#01735d"/><path id="efN8G7lAPSa23" d="M1902.253906,4295.162109c4.421875-7.575683,8.29065-13.788574,12.191529-19.981445c40.270141-63.929687,95.840698-108.98291,168.272094-130.65332c96.030762-28.729981,184.543701-10.375,264.303955,49.364258c48.714844,36.486328,82.458252,84.54248,103.354737,141.665039c3.000488,8.202148,5.333984,16.466308,4.415771,28.535644-.30664,22.631836-.548584,42.05127-.790527,61.471192-.442871,7.294921-1.173828,14.584961-1.286133,21.884765-2.271973,147.936524-4.484131,295.873047-6.683594,443.810059-1.020263,68.637695-1.907715,137.277832-3.008789,205.914062-.748535,46.64502-1.742676,93.286133-2.696533,139.927246-.078857,3.856446-.689941,7.702637-1.135742,12.421387-5.232422.466797-9.738526,1.151856-14.254883,1.230469-169.502686,2.956055-491.473999,2.699219-512.538696-.549805-.264283-2.849121-.719361-6.010254-.82666-9.183105-.968506-28.63916-2.044068-57.276367-2.768677-85.922364-1.921265-75.94873-3.588745-151.904296-5.530884-227.852539-2.725708-106.592285-5.57373-213.18164-8.434692-319.770019-2.270874-84.604004-4.280396-169.21875-7.253052-253.79834-.632568-17.995117,2.407837-34.263672,11.003296-49.791016c1.283203-2.316894,2.098144-4.893554,3.66748-8.722168Z" transform="matrix(-.476898 0.073021 0.151353 0.98848 4257.612984-1104.178115)" fill="#01735d"/></g><path id="efN8G7lAPSa24" d="M1902.253906,4295.162109c4.421875-7.575683,8.29065-13.788574,12.191529-19.981445c40.270141-63.929687,95.840698-108.98291,168.272094-130.65332c96.030762-28.729981,184.543701-10.375,264.303955,49.364258c48.714844,36.486328,82.458252,84.54248,103.354737,141.665039c3.000488,8.202148,5.333984,16.466308,4.415771,28.535644-.30664,22.631836-.548584,42.05127-.790527,61.471192-.442871,7.294921-1.173828,14.584961-1.286133,21.884765-2.271973,147.936524-4.484131,295.873047-6.683594,443.810059-1.020263,68.637695-1.907715,137.277832-3.008789,205.914062-.748535,46.64502-1.742676,93.286133-2.696533,139.927246-.078857,3.856446-.689941,7.702637-1.135742,12.421387-5.232422.466797-9.738526,1.151856-14.254883,1.230469-169.502686,2.956055-491.473999,2.699219-512.538696-.549805-.264283-2.849121-.719361-6.010254-.82666-9.183105-.968506-28.63916-2.044068-57.276367-2.768677-85.922364-1.921265-75.94873-3.588745-151.904296-5.530884-227.852539-2.725708-106.592285-5.57373-213.18164-8.434692-319.770019-2.270874-84.604004-4.280396-169.21875-7.253052-253.79834-.632568-17.995117,2.407837-34.263672,11.003296-49.791016c1.283203-2.316894,2.098144-4.893554,3.66748-8.722168Z" transform="translate(8.595938 0)" fill="#01735d"/><path id="efN8G7lAPSa25" d="M3793.754883,4305.20752c4.633056,11.042968,9.27539,22.082519,13.896484,33.130859c3.637451,8.696289,5.320069,17.613769,5.191162,27.189453-1.109619,82.601074-1.910888,165.205566-2.839111,247.809082-.9729,86.599609-1.953125,173.200195-2.987549,259.799316-1.392334,116.574708-2.806152,233.149415-4.320557,349.722168-.137451,10.550782.469483,21.208008-1.431152,30.868653-1.390869,1.106445-1.84375,1.565429-2.384521,1.86914-.574707.322754-1.231446.701661-1.855225.707032-171.192627,1.428711-342.385254,2.831054-513.578369,4.1875-2.62085.020996-5.246338-.528321-8.948242-.928223-.63794-4.495117-1.699707-8.922852-1.833008-13.378418-1.653565-55.265625-3.081055-110.537598-4.744141-165.802734-3.647705-121.182129-7.479248-242.358887-11.073242-363.542481-2.093262-70.580078-3.810791-141.172363-5.82251-211.754883-.891601-31.294922-2.092529-62.581054-3.24414-97.545898-.397705-21.00293-.343994-38.348633-1.14209-55.654785-.50708-11,1.881103-20.985352,6.36084-30.917969c19.502441-43.241699,46.917236-80.623047,83.217041-111.105957c64.494873-54.160156,139.129394-78.233398,222.760498-68.747559c75.827881,8.601075,139.071533,43.507325,190.128906,100.367188c17.473877,19.459473,31.335205,41.386719,44.648926,63.728516Z" fill="#01735d"/></g><g id="" transform="matrix(1.714286 0 0 1.714286 308.571429 480)"><g id="efN8G7lAPSa29" transform="matrix(.3 0 0 0.3-18.12243-25.905895)" opacity="0.7" mask="url(#efN8G7lAPSa31)"><mask id="efN8G7lAPSa31" mask-type="alpha" x="-150%" y="-150%" height="400%" width="400%"><path id="efN8G7lAPSa32" d="M78.37454,207.03926c0-31.45994,25.50332-56.96327,56.96327-56.96327s56.96327,25.50332,56.96327,56.96327-25.50332,56.96327-56.96327,56.96327-56.96327-25.50332-56.96327-56.96327Zm89.23546-4.715c-.16775-.93858-1.05962-1.56734-2-1.41h-.06c-4.15414.71597-8.30501-1.28258-10.33588-4.97651s-1.49439-8.26953,1.33588-11.39349c.33036-.3301.51598-.77798.51598-1.245s-.18561-.9149-.51598-1.245l-.11-.1c-2.70671-2.31865-5.78705-4.16144-9.11-5.45-.43613-.17299-.92328-.16468-1.35326.02308s-.76719.53944-.93674.97692v.06c-1.40364,3.98681-5.18789,6.63916-9.41438,6.59848s-7.95898-2.76539-9.28562-6.77848c-.13404-.44903-.44162-.82607-.85458-1.04757s-.8972-.26916-1.34542-.13243h-.11c-3.26392,1.21388-6.31249,2.94242-9.03,5.12-.37331.28196-.619.70095-.6828,1.16441s.05956.93325.3428,1.30559l.1.12c2.68294,3.2243,3.03751,7.79124.8844,11.39101s-6.34454,5.44763-10.4544,4.60899c-.45624-.10445-.9353-.02286-1.33126.22672s-.67619.6466-.77874,1.10328v.09c-.55386,3.43784-.55386,6.94217,0,10.38.06433.46505.31181.88512.68739,1.16681s.84815.40164,1.31261.33319h.11c4.15414-.71597,8.30501,1.28258,10.33588,4.97651s1.49439,8.26953-1.33588,11.39349c-.33036.3301-.51598.77798-.51598,1.245s.18561.9149.51598,1.245l.11.1c2.70914,2.30768,5.7893,4.14023,9.11,5.42.43613.17299.92328.16468,1.35326-.02308s.76719-.53944.93674-.97692v-.06c1.40815-3.97311,5.18194-6.61524,9.39704-6.57914s7.94308,2.7425,9.28296,6.73914c.13404.44903.44162.82607.85458,1.04757s.8972.26916,1.34542.13243h.11c3.30375-1.22537,6.38706-2.97809,9.13-5.19.37164-.28659.61343-.70974.67164-1.17542s-.07198-.93533-.36164-1.30458l-.1-.12c-2.83001-3.19588-3.28744-7.84789-1.13412-11.53378s6.43037-5.57199,10.60412-4.67622c.93041.23341,1.87421-.33019,2.11-1.26v-.09c.5347-3.37898.5347-6.82102,0-10.2Zm-41.67,4.69c0-5.197,4.213-9.41,9.41-9.41s9.41,4.213,9.41,9.41-4.213,9.41-9.41,9.41-9.41-4.213-9.41-9.41Z" fill="#d2dbed" stroke-width="0"/></mask></g></g>
<script><![CDATA[
!function(t,e){"object"==typeof exports&&"undefined"!=typeof module?module.exports=e():"function"==typeof __SVGATOR_DEFINE__&&__SVGATOR_DEFINE__.amd?__SVGATOR_DEFINE__(e):((t="undefined"!=typeof globalThis?globalThis:t||self).__SVGATOR_PLAYER__=t.__SVGATOR_PLAYER__||{},t.__SVGATOR_PLAYER__["5c7f360c"]=e())}(this,(function(){"use strict";const t=n(Math.pow(10,-6)),e=n(Math.pow(10,-2));function n(t,e=6){return function(t,e,n){if(Number.isInteger(t))return t;const r=Math.pow(10,e);return Math[n]((+t+Number.EPSILON)*r)/r}(t,e,"round")}function r(e,n,r=t){return Math.abs(e-n)<r}n(Math.pow(10,-4));const i=Math.PI/180;function s(t){return t*i}function o(t){return t/i}function u(t){return"number"!=typeof t&&(t=Number(t)),isNaN(t)||!isFinite(t)?0:t}let l={iD:!1};function a(t){return`${t}`.replace(/['"]/g,"")}function c(t,e="px"){return t.endsWith(e)?t:`${t}${e}`}function f(t=""){return l.iD?t:void 0}function h(t){const e=["^","\\s*","(matrix\\()","(?<a>-?[0-9]*\\.?[0-9]+)","\\s*",",?","\\s*","(?<b>-?[0-9]*\\.?[0-9]+)","\\s*",",?","\\s*","(?<c>-?[0-9]*\\.?[0-9]+)","\\s*",",?","\\s*","(?<d>-?[0-9]*\\.?[0-9]+)","\\s*",",?","\\s*","(?<e>-?[0-9]*\\.?[0-9]+)","\\s*",",?","\\s*","(?<f>-?[0-9]*\\.?[0-9]+)","\\)"].join(""),n=t.match(new RegExp(e,"i"));if(n)return[u(n.groups.a),u(n.groups.b),u(n.groups.c),u(n.groups.d),u(n.groups.e),u(n.groups.f)]}function d(t,e="inline"){return t&&t!==e?(t=a(t))===e?f(e):t:f(e)}function g(t,e="1px"){if(!t||t===e)return f(e);if(t.endsWith("px")||t.endsWith("%"))return t;const n=c(t=`${u(t)}`);return n===e?f(e):n}function p(t,e="none"){return t&&t!==e?(t=a(t))===e?f(e):t.startsWith("url(#")?t:function(t){const e=["^","\\s*","url\\(","#","(?<maskId>[a-zA-Z0-9\\-_]+)","\\)"].join(""),n=t.match(new RegExp(e,"i"));if(n)return`url(#${n.groups.maskId})`}(t):f(e)}function y(t,e="rgb(0, 0, 0)"){if(!t||t===e)return f(e);if((t=a(t))===e)return f(e);if(t.startsWith("rgb"))return t;const n=function(t){const e=["^","\\s*","#","(?<red>[0-9A-Z]{1,2})","(?<green>[0-9A-Z]{1,2})","(?<blue>[0-9A-Z]{1,2})"].join(""),n=t.match(new RegExp(e,"i"));if(!n)return t;const r=t=>parseInt(t.length>1?t:`${t}${t}`,16);return`rgb(${r(n.groups.red)}, ${r(n.groups.green)}, ${r(n.groups.blue)})`}(t);return n===e?f(e):n}function m(t,e="1"){return t&&t!==e?(t=`${n(u(t),3)}`)===e?f(e):t:f(e)}let b={};const v={fill:"none",stroke:"none",opacity:"0.01",transform:"matrix(0.001 0 0 0.001 -10000 -10000)"};function w({element:t,tagType:e="path",property:n="d",attributeValue:r}){return b[r]||(b[r]=function({element:t,tagType:e="path",property:n="d",attributeValue:r}){const i=t.ownerSVGElement,s=document.createElementNS(i.namespaceURI,e);s.setAttributeNS(null,n,r);for(const t in v)s.setAttributeNS(null,t,v[t]);i.appendChild(s);const o=getComputedStyle(s)[n];return s.remove(),o}({element:t,tagType:e,property:n,attributeValue:r})),b[r]}const x=()=>{b={}};"object"==typeof window&&(window.removeEventListener("resize",x),window.addEventListener("resize",x));const A={include:(t,e)=>["path"].includes(e),formatter:t=>function(t,e=""){return t&&t!==e?(t=a(t))===e?f(e):t.startsWith("path(")?t:`path('${t}')`:f(e)}(t)},_={include:(t,e)=>["rect","mask"].includes(e),formatter:(t,e,n)=>g(t,function(t,e){var n;return(null===(n={mask:{x:"-150%",y:"-150%",width:"400%",height:"400%"}}[e])||void 0===n?void 0:n[t])||(["x","y"].includes(t)?"0px":"100%")}(e,n))},S=Object.freeze({d:A,display:t=>d(t),height:_,fill:t=>y(t),"fill-opacity":t=>m(t),filter:t=>d(t,"none"),mask:t=>p(t),opacity:t=>m(t),stroke:t=>y(t,"none"),"stroke-opacity":t=>m(t),"stroke-width":t=>g(t),transform:t=>function(t,e="none"){if(!t||t===e)return f(e);const n=h(t);return n?`matrix(${n.join(", ")})`:t}(t),"transform-origin":t=>function(t,e="0px 0px"){if(!t||t===e)return f(e);const n=["^","\\s*","(?<x>[0-9]+)","(px)?","\\s*",",","\\s*","(?<y>[0-9]+)","(px)?"].join(""),r=t.match(new RegExp(n,"i"));if(!r)return t;let i=`${u(r.groups.x)}`;i=c(i);let s=`${u(r.groups.y)}`;s=c(s);const o=`${i} ${s}`;return o===e?f(e):o}(t),visibility:t=>d(t,"visible"),width:_,x:_,y:_}),k=Object.keys(S),E=e;function M(t,e,n,i,s=window){var o,u;const l=t.getAttribute(e),a="transform"===e?"none":"",c=s.safari&&!s.chrome&&(null===(o=i.getPropertyValue)||void 0===o?void 0:o.call(i,e))===a||"mask"===n?l:null===(u=i.getPropertyValue)||void 0===u?void 0:u.call(i,e);if(l&&c){if(l===c)return l;switch(e){case"transform":return function(t,e){const n=h(t),i=h(e);if((null==n?void 0:n.length)===(null==i?void 0:i.length)){for(let t=0,e=n.length;t<e;t++)if(n[t]!==i[t]&&(s=i[t],!r(((o=n[t])-s)/(o||1)*100,0,E)))return;var s,o;return t}}(l,c);case"d":return function(t,e,n){return w({element:t,attributeValue:e})===n?e:void 0}(t,l,c);default:return c}}}function I(t,e,n,r){var i,s,o,u;const l="transform"===e||["mask","path"].includes(n)&&["x","y","width","height","d"].includes(e);return r&&l?M(t,e,n,r):(null===(i=r.getPropertyValue)||void 0===i?void 0:i.call(r,e))??(null===(s=t.attrs)||void 0===s||null===(o=s.style)||void 0===o?void 0:o[e])??(null===(u=t.attrs)||void 0===u?void 0:u[e])}function N(t,e,n=!1){l.iD=n;const r="undefined"!=typeof window&&getComputedStyle(t),i={};for(let l=0,a=k.length;l<a;l++){var s,o,u;const a=k[l],c=t.type||t.nodeName;if(!1===(null===(s=(o=S[a]).include)||void 0===s?void 0:s.call(o,a,c)))continue;const f=S[a].formatter||S[a];if(null!=e&&null!==(u=e[t.id])&&void 0!==u&&u[a])continue;const h=I(t,a,c,r);if(null==h&&!n)continue;const d=f.call(this,h,a,c);d&&(i[a]=d)}return i}function j(t){var e,n;if(null==t||null===(e=t.wD)||void 0===e||!e.length)return;this.h=t.wD.shift();const r=null===(n=t.rootId)||void 0===n?void 0:n.slice(0,-1);this.wIs=t.wD.map((t=>`${r}${t}`))}function B(t){const e=new j(t),n=t.svg,r=e.wIs,i=t.originalAnimations[0].elements,s=e.h;function o(t,e,s){var u;if(e[t])return;const l=n.querySelector("#"+t),a=null==l||null===(u=l.parentElement)||void 0===u?void 0:u.id;if(l&&a){if(r.includes(a))return e[a]||o(a,e,s),e[a].children??=[],e[t]=N(l,i),void e[a].children.push(e[t]);e[t]=N(l,i),s.push(e[t])}}async function u(){const t=function(){let t=[],e={};for(let n=0,i=r.length;n<i;n++)o(r[n],e,t);return t}();return await async function(t){var e,n;const r=JSON.stringify(t),i=(new TextEncoder).encode(r),o=await(null===(e=window.crypto)||void 0===e||null===(n=e.subtle)||void 0===n?void 0:n.digest("SHA-256",i));return o&&Array.from(new Uint8Array(o)).map((t=>t.toString(16).padStart(2,"0"))).join("")||s}(t)}this.vH=async function(){await u()!==s&&requestAnimationFrame((()=>t.stop()))}}function O(t){let e=0,n=0;const r=new B(t);this.cF=function(i,s){return t.wD?(e++,function(t){return!(t-n<300)&&(t-n>=500||e>=3)}(i)?(e=0,n=i,window.requestAnimationFrame((()=>r.vH())),s()):s()):s()}}function T(t){return t}function F(t,e,n){const r=1-n;return 3*n*r*(t*r+e*n)+n*n*n}function V(t=0,e=0,n=1,i=1){return t<0||t>1||n<0||n>1?null:r(t,e)&&r(n,i)?T:s=>{if(s<=0)return t>0?s*e/t:0===e&&n>0?s*i/n:0;if(s>=1)return n<1?1+(s-1)*(i-1)/(n-1):1===n&&t<1?1+(s-1)*(e-1)/(t-1):1;let o,u=0,l=1;for(;u<l;){o=(u+l)/2;const e=F(t,n,o);if(r(s,e))break;e<s?u=o:l=o}return F(e,i,o)}}function R(){return 1}function C(t){return 1===t?1:0}function P(t=1,e=0){if(1===t){if(0===e)return C;if(1===e)return R}const n=1/t;return t=>t>=1?1:(t+=e*n)-t%n}Number.isInteger||(Number.isInteger=function(t){return"number"==typeof t&&isFinite(t)&&Math.floor(t)===t}),Number.EPSILON||(Number.EPSILON=2220446049250313e-31);const $=Math.sin,D=Math.cos,L=Math.acos,q=Math.asin,z=Math.tan,G=Math.atan2,W=Math.sqrt;function Y(t,e){return{a:t[0]*e[0]+t[2]*e[1],b:t[1]*e[0]+t[3]*e[1],c:t[0]*e[2]+t[2]*e[3],d:t[1]*e[2]+t[3]*e[3],tx:t[0]*e[4]+t[2]*e[5]+t[4],ty:t[1]*e[4]+t[3]*e[5]+t[5]}}function U(t,e,n){return t>=.5?n:e}function H(t,e,n){return 0===t||e===n?e:t*(n-e)+e}function Z(t,e,n){const r=H(t,e,n);return r<=0?0:r}function J(t,e,n){const r=H(t,e,n);return r<=0?0:r>=1?1:r}function Q(t,e,n){return 0===t?e:1===t?n:{x:H(t,e.x,n.x),y:H(t,e.y,n.y)}}function X(t,e,n){return 0===t?e:1===t?n:{x:Z(t,e.x,n.x),y:Z(t,e.y,n.y)}}function K(t,e,n){const r=function(t,e,n){return Math.round(H(t,e,n))}(t,e,n);return r<=0?0:r>=255?255:r}function tt(t,e,n){return 0===t?e:1===t?n:{r:K(t,e.r,n.r),g:K(t,e.g,n.g),b:K(t,e.b,n.b),a:H(t,null==e.a?1:e.a,null==n.a?1:n.a)}}function et(t,e,n){let r=e.length;if(r!==n.length)return U(t,e,n);let i=new Array(r);for(let s=0;s<r;s++)i[s]=H(t,e[s],n[s]);return i}function nt(t,e){const n=[];for(let r=0;r<t;r++)n.push(e);return n}function rt(t,e){if(--e<=0)return t;const n=(t=Object.assign([],t)).length;do{for(let e=0;e<n;e++)t.push(t[e])}while(--e>0);return t}class it{constructor(t){this.list=t,this.length=t.length}setAttribute(t,e){const n=this.list;for(let r=0;r<this.length;r++)n[r].setAttribute(t,e)}removeAttribute(t){const e=this.list;for(let n=0;n<this.length;n++)e[n].removeAttribute(t)}style(t,e){const n=this.list;for(let r=0;r<this.length;r++)n[r].style[t]=e}}const st=/-./g,ot=(t,e)=>e.toUpperCase();let ut;function lt(t){return"function"==typeof t?t:U}function at(t){return t?"function"==typeof t?t:Array.isArray(t)?function(t,e=T){if(!Array.isArray(t))return e;switch(t.length){case 1:return P(t[0])||e;case 2:return P(t[0],t[1])||e;case 4:return V(t[0],t[1],t[2],t[3])||e}return e}(t,null):function(t,e,n=T){switch(t){case"linear":return T;case"steps":return P(e.steps||1,e.jump||0)||n;case"bezier":case"cubic-bezier":return V(e.x1||0,e.y1||0,e.x2||0,e.y2||0)||n}return n}(t.type,t.value,null):null}function ct(t,e,n,r=!1){const i=e.length-1;if(t<=e[0].t)return r?[0,0,e[0].v]:e[0].v;if(t>=e[i].t)return r?[i,1,e[i].v]:e[i].v;let s,o=e[0],u=null;for(s=1;s<=i;s++){if(!(t>e[s].t)){u=e[s];break}o=e[s]}return null==u?r?[i,1,e[i].v]:e[i].v:o.t===u.t?r?[s,1,u.v]:u.v:(t=(t-o.t)/(u.t-o.t),o.e&&(t=o.e(t)),r?[s,t,n(t,o.v,u.v)]:n(t,o.v,u.v))}function ft(t,e,n=null){return t&&t.length?"function"!=typeof e?null:("function"!=typeof n&&(n=null),r=>{let i=ct(r,t,e);return null!=i&&n&&(i=n(i)),i}):null}function ht(t,e){return t.t-e.t}function dt(t,e,n,r,i){const s="@"===n[0],o="#"===n[0];let u=ut[n],l=U;var a;switch(s?(a=n.substr(1),n=a.replace(st,ot)):o&&(n=n.substr(1)),typeof u){case"function":if(l=u(r,i,ct,at,n,s,e,t),o)return l;break;case"string":l=ft(r,lt(u));break;case"object":if(l=ft(r,lt(u.i),u.f),l&&"function"==typeof u.u)return u.u(e,l,n,s,t)}return l?function(t,e,n,r=!1){if(r)return t instanceof it?r=>t.style(e,n(r)):r=>t.style[e]=n(r);if(Array.isArray(e)){const r=e.length;return i=>{const s=n(i);if(null==s)for(let n=0;n<r;n++)t[n].removeAttribute(e);else for(let n=0;n<r;n++)t[n].setAttribute(e,s)}}return r=>{const i=n(r);null==i?t.removeAttribute(e):t.setAttribute(e,i)}}(e,n,l,s):null}function gt(t,e,n,r){if(!r||"object"!=typeof r)return null;let i=null,s=null;return Array.isArray(r)?s=function(t){if(!t||!t.length)return null;for(let e=0;e<t.length;e++)t[e].e&&(t[e].e=at(t[e].e));return t.sort(ht)}(r):(s=r.keys,i=r.data||null),s?dt(t,e,n,s,i):null}function pt(t,e,n){if(!n)return null;const r=[];for(const i in n)if(n.hasOwnProperty(i)){const s=gt(t,e,i,n[i]);s&&r.push(s)}return r.length?r:null}function yt(t,e){if(!e.settings.duration||e.settings.duration<0)return null;const n=function(t,e){if(!e)return null;let n=[];if(Array.isArray(e)){const r=e.length;for(let i=0;i<r;i++){const r=e[i];if(2!==r.length)continue;let s=null;if("string"==typeof r[0])s=t.getElementById(r[0]);else if(Array.isArray(r[0])){s=[];for(let e=0;e<r[0].length;e++)if("string"==typeof r[0][e]){const n=t.getElementById(r[0][e]);n&&s.push(n)}s=s.length?1===s.length?s[0]:new it(s):null}if(!s)continue;const o=pt(t,s,r[1]);o&&(n=n.concat(o))}}else for(const r in e){if(!e.hasOwnProperty(r))continue;const i=t.getElementById(r);if(!i)continue;const s=pt(t,i,e[r]);s&&(n=n.concat(s))}return n.length?n:null}(t,e.elements);return n?function(t,e){const n=e.duration,r=t.length;let i=null;return(s,o)=>{const u=e.iterations||1/0,l=(e.alternate&&u%2==0)^e.direction>0?n:0;let a=s%n,c=1+(s-a)/n;o*=e.direction,e.alternate&&c%2==0&&(o=-o);let f=!1;if(c>u)a=l,f=!0,-1===e.fill&&(a=e.direction>0?0:n);else if(o<0&&(a=n-a),a===i)return!1;i=a;for(let e=0;e<r;e++)t[e](a);return f}}(n,e.settings):null}function mt(t,e=document,n=0){const r=function(t,e){const n=e.querySelectorAll("svg");for(let e=0;e<n.length;e++)if(n[e].id===t.root&&!n[e].svgatorAnimation)return n[e].svgatorAnimation=!0,n[e];return null}(t,e);if(r)return r;if(n>=20)return null;const i=function(t){const e=t=>t.shadowRoot;return document?Array.from(t.querySelectorAll(":not("+["a","area","audio","br","canvas","circle","datalist","embed","g","head","hr","iframe","img","input","link","object","path","polygon","rect","script","source","style","svg","title","track","video"].join()+")")).filter(e).map(e):[]}(e);for(let e=0;e<i.length;e++){const r=mt(t,i[e],n+1);if(r)return r}return null}function bt(t,e=null,n=Number,r="undefined"!=typeof BigInt&&BigInt){const i="0x"+(t.replace(/[^0-9a-fA-F]+/g,"")||27);return e&&r&&n.isSafeInteger&&!n.isSafeInteger(+i)?n(r(i))%e+e:+i}function vt(t,e=27){return!t||t%e?t%e:[0,1].includes(e)?e:vt(t/e,e)}function wt(t,e,n){if(!t||!t.length)return;const r=bt(n),i=vt(r)+5;let s=function(t,e,n){let r="";for(;t&&n&&e<=t.length;)r+=t.substring(0,e),t=t.substring(e+1),e=n;return r+t}(t,vt(r,5),i);return s=s.replace(/\x7c$/g,"==").replace(/\x2f$/g,"="),s=atob(s),s=s.replace(/[\x41-\x5A]/g,""),s=function(t,e,n){const r=+("0x"+t.substring(0,4));t=t.substring(4);const i=bt(e,r)%r+n%27,s=[];for(let e=0;e<t.length;e+=2){if("|"===t[e]){const n=+("0x"+t.substring(e+1,e+1+4))-i;e+=3,s.push(n);continue}const n=+("0x"+t[e]+t[e+1])-i;s.push(n)}return String.fromCharCode(...s)}(s,e,r),s=JSON.parse(s),s}const xt=[{key:"alternate",def:!1},{key:"fill",def:1},{key:"iterations",def:0},{key:"direction",def:1},{key:"speed",def:1},{key:"fps",def:100}];function At(t){return n(t)+""}function _t(t,e=" "){return t&&t.length?t.map(At).join(e):""}function St(t){return At(t.x)+","+At(t.y)}function kt(t){return t?null==t.a||t.a>=1?function(t){if(!t)return"transparent";const e=t=>parseInt(t).toString(16).padStart(2,"0");return function(t){const e=[];let n="#"===t[0]?e.push("#"):0;for(;n<t.length;n+=2){if(t[n]!==t[n+1])return t;e.push(t[n])}return e.join("")}("#"+e(t.r)+e(t.g)+e(t.b)+(null==t.a||t.a>=1?"":e(255*t.a)))}(t):"rgba("+t.r+","+t.g+","+t.b+","+t.a+")":"transparent"}function Et(t){return t?"url(#"+t+")":"none"}!function(){for(var t=0,e=["ms","moz","webkit","o"],n=0;n<e.length&&!window.requestAnimationFrame;++n)window.requestAnimationFrame=window[e[n]+"RequestAnimationFrame"],window.cancelAnimationFrame=window[e[n]+"CancelAnimationFrame"]||window[e[n]+"CancelRequestAnimationFrame"];window.requestAnimationFrame||(window.requestAnimationFrame=function(e){var n=Date.now(),r=Math.max(0,16-(n-t)),i=window.setTimeout((function(){e(n+r)}),r);return t=n+r,i},window.cancelAnimationFrame=window.clearTimeout)}();var Mt={f:null,i:X,u:(t,e)=>n=>{const r=e(n);t.setAttribute("rx",At(r.x)),t.setAttribute("ry",At(r.y))}},It={f:null,i:function(t,e,n){return 0===t?e:1===t?n:{width:Z(t,e.width,n.width),height:Z(t,e.height,n.height)}},u:(t,e)=>n=>{const r=e(n);t.setAttribute("width",At(r.width)),t.setAttribute("height",At(r.height))}};Object.freeze({M:2,L:2,Z:0,H:1,V:1,C:6,Q:4,T:2,S:4,A:7});let Nt={},jt=null;function Bt(t){let e=function(){if(jt)return jt;if("object"!=typeof document||!document.createElementNS)return{};let t=document.createElementNS("http://www.w3.org/2000/svg","svg");return t&&t.style?(t.style.position="absolute",t.style.opacity="0.01",t.style.zIndex="-9999",t.style.left="-9999px",t.style.width="1px",t.style.height="1px",jt={svg:t},jt):{}}().svg;if(!e)return function(t){return null};let n=document.createElementNS(e.namespaceURI,"path");n.setAttributeNS(null,"d",t),n.setAttributeNS(null,"fill","none"),n.setAttributeNS(null,"stroke","none"),e.appendChild(n);let r=n.getTotalLength();return function(t){let e=n.getPointAtLength(r*t);return{x:e.x,y:e.y}}}function Ot(t,e,n,r,i=1){let s=function(t){return Nt[t]?Nt[t]:Nt[t]=Bt(t)}(function(t,e,n,r){if(!t||!r)return!1;let i=["M",t.x,t.y];if(e&&n&&(i.push("C"),i.push(e.x),i.push(e.y),i.push(n.x),i.push(n.y)),e?!n:n){let t=e||n;i.push("Q"),i.push(t.x),i.push(t.y)}return e||n||i.push("L"),i.push(r.x),i.push(r.y),i.join(" ")}(t,e,n,r));try{return s(i)}catch(t){return null}}function Tt(t,e,n){return t+(e-t)*n}function Ft(t,e,n,r=!1){const i={x:Tt(t.x,e.x,n),y:Tt(t.y,e.y,n)};return r&&(i.a=function(t,e){return Math.atan2(e.y-t.y,e.x-t.x)}(t,e)),i}function Vt(t,e,n,r){const i=1-r;return i*i*t+2*i*r*e+r*r*n}function Rt(t,e,n,r){return 2*(1-r)*(e-t)+2*r*(n-e)}function Ct(t,e,n,r,i=!1){let s=Ot(t,e,null,n,r);return s||(s={x:Vt(t.x,e.x,n.x,r),y:Vt(t.y,e.y,n.y,r)}),i&&(s.a=function(t,e,n,r){return Math.atan2(Rt(t.y,e.y,n.y,r),Rt(t.x,e.x,n.x,r))}(t,e,n,r)),s}function Pt(t,e,n,r,i){const s=i*i;return i*s*(r-t+3*(e-n))+3*s*(t+n-2*e)+3*i*(e-t)+t}function $t(t,e,n,r,i){const s=1-i;return 3*(s*s*(e-t)+2*s*i*(n-e)+i*i*(r-n))}function Dt(t,e,n,r,i,s=!1){let o=Ot(t,e,n,r,i);return o||(o={x:Pt(t.x,e.x,n.x,r.x,i),y:Pt(t.y,e.y,n.y,r.y,i)}),s&&(o.a=function(t,e,n,r,i){return Math.atan2($t(t.y,e.y,n.y,r.y,i),$t(t.x,e.x,n.x,r.x,i))}(t,e,n,r,i)),o}function Lt(t,e,n,r=!1){if(zt(e)){if(Gt(n))return Ct(e,n.start,n,t,r)}else if(zt(n)){if(Wt(e))return Ct(e,e.end,n,t,r)}else{if(Wt(e))return Gt(n)?Dt(e,e.end,n.start,n,t,r):Ct(e,e.end,n,t,r);if(Gt(n))return Ct(e,n.start,n,t,r)}return Ft(e,n,t,r)}function qt(t,e,n){const r=Lt(t,e,n,!0);return r.a=o(function(t,e=!1){return e?t+Math.PI:t}(r.a)),r}function zt(t){return!t.type||"corner"===t.type}function Gt(t){return null!=t.start&&!zt(t)}function Wt(t){return null!=t.end&&!zt(t)}const Yt=new class{constructor(t=1,e=0,n=0,r=1,i=0,s=0){this.m=[t,e,n,r,i,s],this.i=null,this.w=null,this.s=null}get determinant(){const t=this.m;return t[0]*t[3]-t[1]*t[2]}get isIdentity(){if(null===this.i){const t=this.m;this.i=1===t[0]&&0===t[1]&&0===t[2]&&1===t[3]&&0===t[4]&&0===t[5]}return this.i}point(t,e){const n=this.m;return{x:n[0]*t+n[2]*e+n[4],y:n[1]*t+n[3]*e+n[5]}}translateSelf(t=0,e=0){if(!t&&!e)return this;const n=this.m;return n[4]+=n[0]*t+n[2]*e,n[5]+=n[1]*t+n[3]*e,this.w=this.s=this.i=null,this}rotateSelf(t=0){if(t%=360){t=s(t);const e=$(t),n=D(t),r=this.m,i=r[0],o=r[1];r[0]=i*n+r[2]*e,r[1]=o*n+r[3]*e,r[2]=r[2]*n-i*e,r[3]=r[3]*n-o*e,this.w=this.s=this.i=null}return this}scaleSelf(t=1,e=1){if(1!==t||1!==e){const n=this.m;n[0]*=t,n[1]*=t,n[2]*=e,n[3]*=e,this.w=this.s=this.i=null}return this}skewSelf(t,e){if(e%=360,(t%=360)||e){const n=this.m,r=n[0],i=n[1],o=n[2],u=n[3];t&&(t=z(s(t)),n[2]+=r*t,n[3]+=i*t),e&&(e=z(s(e)),n[0]+=o*e,n[1]+=u*e),this.w=this.s=this.i=null}return this}resetSelf(t=1,e=0,n=0,r=1,i=0,s=0){const o=this.m;return o[0]=t,o[1]=e,o[2]=n,o[3]=r,o[4]=i,o[5]=s,this.w=this.s=this.i=null,this}recomposeSelf(t=null,e=null,n=null,r=null,i=null){return this.isIdentity||this.resetSelf(),t&&(t.x||t.y)&&this.translateSelf(t.x,t.y),e&&this.rotateSelf(e),n&&(n.x&&this.skewSelf(n.x,0),n.y&&this.skewSelf(0,n.y)),!r||1===r.x&&1===r.y||this.scaleSelf(r.x,r.y),i&&(i.x||i.y)&&this.translateSelf(i.x,i.y),this}decompose(t=0,e=0){const r=this.m,i=r[0]*r[0]+r[1]*r[1],s=[[r[0],r[1]],[r[2],r[3]]];let u=W(i);if(0===u)return{origin:{x:n(r[4]),y:n(r[5])},translate:{x:n(t),y:n(e)},scale:{x:0,y:0},skew:{x:0,y:0},rotate:0};s[0][0]/=u,s[0][1]/=u;const l=r[0]*r[3]-r[1]*r[2]<0;l&&(u=-u);let a=s[0][0]*s[1][0]+s[0][1]*s[1][1];s[1][0]-=s[0][0]*a,s[1][1]-=s[0][1]*a;let c,f=W(s[1][0]*s[1][0]+s[1][1]*s[1][1]);return 0===f?{origin:{x:n(r[4]),y:n(r[5])},translate:{x:n(t),y:n(e)},scale:{x:n(u),y:0},skew:{x:0,y:0},rotate:0}:(s[1][0]/=f,s[1][1]/=f,a/=f,s[1][1]<0?(c=o(L(s[1][1])),s[0][1]<0&&(c=360-c)):c=o(q(s[0][1])),l&&(c=-c),a=o(G(a,W(s[0][0]*s[0][0]+s[0][1]*s[0][1]))),l&&(a=-a),{origin:{x:n(r[4]),y:n(r[5])},translate:{x:n(t),y:n(e)},scale:{x:n(u),y:n(f)},skew:{x:n(a),y:0},rotate:n(c)})}multiply(t){return this.clone().multiplySelf(t)}preMultiply(t){return t.multiply(this)}multiplySelf(t){const{a:e,b:n,c:r,d:i,tx:s,ty:o}=Y(this.m,t.m);return this.resetSelf(e,n,r,i,s,o),this}preMultiplySelf(t){const{a:e,b:n,c:r,d:i,tx:s,ty:o}=Y(t.m,this.m);return this.resetSelf(e,n,r,i,s,o),this}clone(){const t=this.m;return new this.constructor(t[0],t[1],t[2],t[3],t[4],t[5])}static create(t){return t?Array.isArray(t)?new this(...t):t instanceof this?t.clone():(new this).recomposeSelf(t.origin,t.rotate,t.skew,t.scale,t.translate):new this}toString(t=" ",e=!1){if(null===this.s){let r=this.m.map((t=>n(t)));e||1!==r[0]||0!==r[1]||0!==r[2]||1!==r[3]?this.s="matrix("+r.join(t)+")":this.s="translate("+r[4]+t+r[5]+")"}return this.s}};var Ut={f:function(t){return t?t.join(" "):""},i:function(t,e,n){if(0===t)return e;if(1===t)return n;let r=e.length;if(r!==n.length)return U(t,e,n);let i,s=new Array(r);for(let o=0;o<r;o++){if(i=typeof e[o],i!==typeof n[o])return U(t,e,n);if("number"===i)s[o]=H(t,e[o],n[o]);else{if(e[o]!==n[o])return U(t,e,n);s[o]=e[o]}}return s}},Ht={f:null,i:et,u:(t,e)=>n=>{const r=e(n);t.setAttribute("x1",At(r[0])),t.setAttribute("y1",At(r[1])),t.setAttribute("x2",At(r[2])),t.setAttribute("y2",At(r[3]))}},Zt={f:At,i:H},Jt={f:At,i:J},Qt={f:function(t,e=" "){return t&&t.length>0&&(t=t.map((t=>n(t,4)))),_t(t,e)},i:function(t,e,r){let i=e.length,s=r.length;if(i!==s)if(0===i)i=s,e=nt(i,0);else if(0===s)s=i,r=nt(i,0);else{const t=function(t,e){const n=t*e/function(t,e){let n;for(;e;)n=e,e=t%e,t=n;return t||1}(t,e);return n<0?-n:n}(i,s);e=rt(e,Math.floor(t/i)),r=rt(r,Math.floor(t/s)),i=s=t}let o=[];for(let s=0;s<i;s++)o.push(n(Z(t,e[s],r[s])));return o}};function Xt(t,e,r){return t.map((t=>function(t,e,r){let i=t.v;if(!i||"g"!==i.t||i.s||!i.v||!i.r)return t;const s=r.getElementById(i.r),o=s&&s.querySelectorAll("stop")||[];return i.s=i.v.map(((t,e)=>{let r=o[e]&&o[e].getAttribute("offset");return r=n(parseInt(r)/100),{c:t,o:r}})),delete i.v,t}(t,0,r)))}const Kt={gt:"gradientTransform",c:{x:"cx",y:"cy"},rd:"r",f:{x:"x1",y:"y1"},to:{x:"x2",y:"y2"}};function te(t,e,n,r,i,s,o,u){return Xt(t,0,u),e=function(t,e,n){let r,i,s;const o=t.length-1,u={};for(let l=0;l<=o;l++)r=t[l],r.e&&(r.e=e(r.e)),r.v&&(i=r.v,"g"===i.t&&i.r&&(s=n.getElementById(i.r),s&&(u[i.r]={e:s,s:s.querySelectorAll("stop")})));return u}(t,r,u),r=>{const i=n(r,t,ee);if(!i)return"none";if("c"===i.t)return kt(i.v);if("g"===i.t){if(!e[i.r])return Et(i.r);const t=e[i.r];return function(t,e){let n=t.s;for(let r=n.length;r<e.length;r++){const e=n[n.length-1].cloneNode();e.id=ie(e.id),t.e.appendChild(e),n=t.s=t.e.querySelectorAll("stop")}for(let t=0,r=n.length,i=e.length-1;t<r;t++)n[t].setAttribute("stop-color",kt(e[Math.min(t,i)].c)),n[t].setAttribute("offset",e[Math.min(t,i)].o)}(t,i.s),Object.keys(Kt).forEach((e=>{if(void 0===i[e])return;if("object"==typeof Kt[e])return void Object.keys(Kt[e]).forEach((n=>{if(void 0===i[e][n])return;const r=i[e][n],s=Kt[e][n];t.e.setAttribute(s,r)}));const n="gt"===e?(r=i[e],Array.isArray(r)?"matrix("+r.join(" ")+")":""):i[e];var r;const s=Kt[e];t.e.setAttribute(s,n)})),Et(i.r)}return"none"}}function ee(t,e,n){if(0===t)return e;if(1===t)return n;if(e&&n){const r=e.t;if(r===n.t)switch(e.t){case"c":return{t:r,v:tt(t,e.v,n.v)};case"g":if(e.r===n.r){const i={t:r,s:ne(t,e.s,n.s),r:e.r};return e.gt&&n.gt&&(i.gt=et(t,e.gt,n.gt)),e.c?(i.c=Q(t,e.c,n.c),i.rd=Z(t,e.rd,n.rd)):e.f&&(i.f=Q(t,e.f,n.f),i.to=Q(t,e.to,n.to)),i}}if("c"===e.t&&"g"===n.t||"c"===n.t&&"g"===e.t){const r="c"===e.t?e:n,i="g"===e.t?{...e}:{...n},s=i.s.map((t=>({c:r.v,o:t.o})));return i.s="c"===e.t?ne(t,s,i.s):ne(t,i.s,s),i}}return U(t,e,n)}function ne(t,e,n){if(e.length===n.length)return e.map(((e,r)=>re(t,e,n[r])));const r=Math.max(e.length,n.length),i=[];for(let s=0;s<r;s++){const r=re(t,e[Math.min(s,e.length-1)],n[Math.min(s,n.length-1)]);i.push(r)}return i}function re(t,e,n){return{o:J(t,e.o,n.o||0),c:tt(t,e.c,n.c||{})}}function ie(t){return t.replace(/-fill-([0-9]+)$/,((t,e)=>"-fill-"+(+e+1)))}function se(t,e,n){return 0===t?e:1===t?n:{blur:X(t,e.blur,n.blur),offset:Q(t,e.offset,n.offset),color:tt(t,e.color,n.color)}}const oe={blur:X,brightness:Z,contrast:Z,"drop-shadow":se,"inner-shadow":se,grayscale:Z,"hue-rotate":H,invert:Z,opacity:Z,saturate:Z,sepia:Z};function ue(t,e,n){if(0===t)return e;if(1===t)return n;const r=e.length;if(r!==n.length)return U(t,e,n);const i=[];let s;for(let o=0;o<r;o++){if(e[o].type!==n[o].type)return e;if(s=oe[e[o].type],!s)return U(t,e,n);i.push({type:e.type,value:s(t,e[o].value,n[o].value)})}return i}const le={blur:t=>t?e=>{t.setAttribute("stdDeviation",St(e))}:null,brightness:(t,e,n)=>(t=ce(n,e))?e=>{e=At(e),t.map((t=>t.setAttribute("slope",e)))}:null,contrast:(t,e,n)=>(t=ce(n,e))?e=>{const n=At((1-e)/2);e=At(e),t.map((t=>{t.setAttribute("slope",e),t.setAttribute("intercept",n)}))}:null,"drop-shadow"(t,e,n){const r=n.getElementById(e+"-blur");if(!r)return null;const i=n.getElementById(e+"-offset");if(!i)return null;const s=n.getElementById(e+"-flood");return s?t=>{r.setAttribute("stdDeviation",St(t.blur)),i.setAttribute("dx",At(t.offset.x)),i.setAttribute("dy",At(t.offset.y)),s.setAttribute("flood-color",kt(t.color))}:null},"inner-shadow"(t,e,n){const r=n.getElementById(e+"-blur");if(!r)return null;const i=n.getElementById(e+"-offset");if(!i)return null;const s=n.getElementById(e+"-color-matrix");return s?t=>{r.setAttribute("stdDeviation",St(t.blur)),i.setAttribute("dx",At(t.offset.x)),i.setAttribute("dy",At(t.offset.y));const e=[0,0,0,0,t.color.r/255,0,0,0,0,t.color.g/255,0,0,0,0,t.color.b/255,0,0,0,t.color.a,0];s.setAttribute("values",_t(e))}:null},grayscale:t=>t?e=>{t.setAttribute("values",_t(function(t){return[.2126+.7874*(t=1-t),.7152-.7152*t,.0722-.0722*t,0,0,.2126-.2126*t,.7152+.2848*t,.0722-.0722*t,0,0,.2126-.2126*t,.7152-.7152*t,.0722+.9278*t,0,0,0,0,0,1,0]}(e)))}:null,"hue-rotate":t=>t?e=>t.setAttribute("values",At(e)):null,invert:(t,e,n)=>(t=ce(n,e))?e=>{e=At(e)+" "+At(1-e),t.map((t=>t.setAttribute("tableValues",e)))}:null,opacity:(t,e,n)=>(t=n.getElementById(e+"-A"))?e=>t.setAttribute("tableValues","0 "+At(e)):null,saturate:t=>t?e=>t.setAttribute("values",At(e)):null,sepia:t=>t?e=>t.setAttribute("values",_t(function(t){return[.393+.607*(t=1-t),.769-.769*t,.189-.189*t,0,0,.349-.349*t,.686+.314*t,.168-.168*t,0,0,.272-.272*t,.534-.534*t,.131+.869*t,0,0,0,0,0,1,0]}(e))):null};const ae=["R","G","B"];function ce(t,e){const n=ae.map((n=>t.getElementById(e+"-"+n)||null));return-1!==n.indexOf(null)?null:n}var fe={fill:te,"fill-opacity":Jt,stroke:te,"stroke-opacity":Jt,"stroke-width":Zt,"stroke-dashoffset":{f:At,i:H},"stroke-dasharray":Qt,opacity:Jt,transform:function(t,e,n,r){if(!(t=function(t,e){if(!t||"object"!=typeof t)return null;let n=!1;for(const r in t)t.hasOwnProperty(r)&&(t[r]&&t[r].length?(t[r].forEach((t=>{t.e&&(t.e=e(t.e))})),n=!0):delete t[r]);return n?t:null}(t,r)))return null;const i=(r,i,s,o=null)=>t[r]?n(i,t[r],s):e&&e[r]?e[r]:o;return e&&e.a&&t.o?e=>{const r=n(e,t.o,qt);return Yt.recomposeSelf(r,i("r",e,H,0)+r.a,i("k",e,Q),i("s",e,Q),i("t",e,Q)).toString()}:t=>Yt.recomposeSelf(i("o",t,Lt,null),i("r",t,H,0),i("k",t,Q),i("s",t,Q),i("t",t,Q)).toString()},"#filter":function(t,e,n,r,i,s,o,u){if(!e.items||!t||!t.length)return null;const l=function(t,e){const n=(t=t.map((t=>t&&le[t[0]]?(e.getElementById(t[1]),le[t[0]](e.getElementById(t[1]),t[1],e)):null))).length;return e=>{for(let r=0;r<n;r++)t[r]&&t[r](e[r].value)}}(e.items,u);return l?(t=function(t,e){return t.map((t=>(t.e=e(t.e),t)))}(t,r),e=>{l(n(e,t,ue))}):null},"#line":Ht,points:{f:_t,i:et},d:Ut,r:Zt,"#size":It,"#radius":Mt,_(t,e){if(Array.isArray(t))for(let n=0;n<t.length;n++)this[t[n]]=e;else this[t]=e}};let he=function(t,e,n=n){let r=!1,i=null;return function(s){r&&clearTimeout(r),r=setTimeout((()=>function(){let s=0,o=n.innerHeight,u=0,l=n.innerWidth,a=t.parentNode;for(;a instanceof Element;){let t=n.getComputedStyle(a);if("visible"!==t.overflowY||"visible"!==t.overflowX){let e=a.getBoundingClientRect();"visible"!==t.overflowY&&(s=Math.max(s,e.top),o=Math.min(o,e.bottom)),"visible"!==t.overflowX&&(u=Math.max(u,e.left),l=Math.min(l,e.right))}if(a===a.parentNode)break;a=a.parentNode}r=!1;let c=t.getBoundingClientRect(),f=Math.min(c.height,Math.max(0,s-c.top)),h=Math.min(c.height,Math.max(0,c.bottom-o)),d=Math.min(c.width,Math.max(0,u-c.left)),g=Math.min(c.width,Math.max(0,c.right-l)),p=(c.height-f-h)/c.height,y=(c.width-d-g)/c.width,m=Math.round(p*y*100);null!==i&&i===m||(i=m,e(m))}()),100)}};class de{constructor(t,e,n){const r=function(t){var e,n;const r=t&&1===(null===(e=t.ownerDocument)||void 0===e||null===(n=e.childNodes)||void 0===n?void 0:n.length)&&window.parent!==window,i={el:t,window:window};if(!r)return i;let s;try{s=window.parent.document}catch(t){return i}return i.window=window.parent,i.el=Array.from(s.querySelectorAll("iframe,object")).filter((t=>t.contentWindow===window))[0]||i.el,i}(t);e=Math.max(1,e||1),e=Math.min(e,100),this.el=r.el,this._handlers=[],this.onThresholdChange=n&&n.call?n:()=>{},this.thresholdPercent=e||1,this.currentVisibility=null,this.visibilityCalculator=he(this.el,this.onVisibilityUpdate.bind(this),r.window),this.bindScrollWatchers(),this.visibilityCalculator()}bindScrollWatchers(){let t=this.el.parentNode;for(;t&&(this._handlers.push({element:t,event:"scroll",handler:this.visibilityCalculator}),t.addEventListener("scroll",this.visibilityCalculator),t!==t.parentNode&&t!==document);)t=t.parentNode}onVisibilityUpdate(t){let e=this.currentVisibility>=this.thresholdPercent,n=t>=this.thresholdPercent;if(null===this.currentVisibility||e!==n)return this.currentVisibility=t,void this.onThresholdChange(n);this.currentVisibility=t}destruct(){this._handlers.forEach((t=>{t.element.removeEventListener(t.event,t.handler)}))}}class ge{static adjustLink(t){var e,n;const r=t&&1===(null===(e=t.ownerDocument)||void 0===e||null===(n=e.childNodes)||void 0===n?void 0:n.length)&&window.parent!==window,i=null==t?void 0:t.firstElementChild;r&&i&&"a"===i.tagName&&!i.getAttribute("target")&&i.setAttributeNS(null,"target","_parent")}static autoPlay(t,e,n,r=[]){if("click"===n.start){const i=()=>{switch(n.click){case"freeze":return!t._running&&t.reachedToEnd()?t.restart():t.toggle();case"restart":return t.offset>0?t.restart():t.play();case"reverse":return t._running?t.reverse():t.reachedToEnd()?1===t.fill?t.reverse(!0):t.restart():t.play();case"none":default:if(t._running)return;return t.reachedToEnd()?t.restart():t.play()}};return r.push({element:e,event:"click",handler:i}),void e.addEventListener("click",i)}if("hover"===n.start){const i=()=>t.reachedToEnd()?t.restart():t._rollingBack?t.reverse():t.play();r.push({element:e,event:"mouseenter",handler:i}),e.addEventListener("mouseenter",i);const s=()=>{switch(n.hover){case"freeze":return t.pause();case"reset":return t.stop();case"reverse":if(t.reverse(),t._running)return;return t.play();case"none":default:return}};return r.push({element:e,event:"mouseleave",handler:s}),void e.addEventListener("mouseleave",s)}if("scroll"!==n.start)"programmatic"!==n.start&&t.play();else{const i=new de(e,n.scroll||25,(function(e){e?t.reachedToEnd()?t.restart():t.play():t.pause()}));r.push({callback:()=>i.destruct()})}}}class pe extends class{_svg;_rootId;constructor(t){this._id=0,this._running=!1,this._rollingBack=!1,this._animations=t.animations,this._settings=t.animationSettings,t.version<"2022-05-02"&&delete this._settings.speed,xt.forEach((t=>{this._settings[t.key]=this._settings[t.key]||t.def})),this.duration=t.animationSettings.duration,this.offset=t.animationSettings.offset||0,this.rollbackStartOffset=0,this._rootId=t.root,this._svg=t.svg,this._originalAnimations=t.originalAnimations,this._fTC=new O(this)}get svg(){return this._svg}get rootId(){return this._rootId}get alternate(){return this._settings.alternate}get fill(){return this._settings.fill}get iterations(){return this._settings.iterations}get direction(){return this._settings.direction}get speed(){return this._settings.speed}get fps(){return this._settings.fps}get wD(){return this._settings.w}get originalAnimations(){return this._originalAnimations}get maxFiniteDuration(){return this.iterations>0?this.iterations*this.duration:this.duration}static build(t,e){if(delete t.animationSettings,t.options=wt(t.options,t.root,"5c7f360c"),t.animations.map((e=>{e.settings=wt(e.s,t.root,"5c7f360c"),delete e.s,t.animationSettings||(t.animationSettings=e.settings)})),Object.assign(t,{originalAnimations:t.animations},function(t,e){if(ut=e,!t||!t.root||!Array.isArray(t.animations))return null;const n=mt(t);if(!n)return null;const r=t.animations.map((t=>yt(n,t))).filter((t=>!!t));return r.length?{svg:n,animations:r}:null}(t,e)),!t)return null;const n=t.options||{},r=new this(t);return{el:t.svg,options:n,player:r}}static push(t){return this.build(t)}static init(){const t=window.__SVGATOR_PLAYER__&&window.__SVGATOR_PLAYER__["5c7f360c"];Array.isArray(t)&&t.splice(0).forEach((t=>this.build(t)))}_apply(t,e={}){const n=this._animations,r=n.length;let i=0;for(let s=0;s<r;s++)e[s]?i++:(e[s]=n[s](t,1),e[s]&&i++);return i}_rollback(t){let e=1/0,n=null;this.rollbackStartOffset=t,this._rollingBack=!0,this._running=!0;const r=i=>{if(!this._rollingBack)return;null==n&&(n=i);let s=Math.round(t-(i-n)*this.speed);if(s>this.duration&&e!==1/0){const t=!!this.alternate&&s/this.duration%2>1;let e=s%this.duration;e+=t?this.duration:0,s=e||this.duration}const o=(this.fps?1e3/this.fps:0)*this.speed,u=Math.max(0,s);u<=e-o&&(this.offset=u,e=u,this._apply(u));const l=this.iterations>0&&-1===this.fill&&s>=this.maxFiniteDuration;(s<=0||this.offset<s||l)&&this.stop(),this._id=window.requestAnimationFrame(r)};this._id=window.requestAnimationFrame(r)}_start(t=0){let e,n=-1/0;const r={};this._running=!0;const i=s=>{e??=s;const o=Math.round((s-e)*this.speed+t),u=(this.fps?1e3/this.fps:0)*this.speed;o>=n+u&&!this._rollingBack&&this._fTC.cF(s,(()=>{this.offset=o,n=o;if(this._apply(o,r)===this._animations.length)return this.pause(!0),!0}))||(this._id=window.requestAnimationFrame(i))};this._id=window.requestAnimationFrame(i)}_pause(){this._id&&window.cancelAnimationFrame(this._id),this._running=!1}play(){if(!this._running)return this._rollingBack?this._rollback(this.offset):this._start(this.offset)}stop(){this._pause(),this.offset=0,this.rollbackStartOffset=0,this._rollingBack=!1,this._apply(0)}reachedToEnd(){return this.iterations>0&&this.offset>=this.iterations*this.duration}restart(t=!1){this.stop(t),this.play(t)}pause(){this._pause()}toggle(){return this._running?this.pause():this.reachedToEnd()?this.restart():this.play()}trigger(t,e){}_adjustOffset(t=!1){const e=this.alternate?2*this.duration:this.duration;if(t){if(!this._rollingBack&&0===this.offset)return void(this.offset=e);this._rollingBack&&(this.offset,this.maxFiniteDuration)}!this._rollingBack||this.rollbackStartOffset<=this.duration?0!==this.iterations&&(this.offset=Math.min(this.offset,this.maxFiniteDuration)):(this.offset=this.rollbackStartOffset-(this.rollbackStartOffset-this.offset)%e,this.rollbackStartOffset=0)}reverse(t=!1){if(!this._running)return this._adjustOffset(t),this._rollingBack=!this._rollingBack,t&&this.play(!1),void this.trigger("reverse",this.offset);this.pause(!1,!1),this._adjustOffset(),this._rollingBack=!this._rollingBack,this.play(!1),this.trigger("reverse",this.offset)}}{static build(t){let e=super.build(t,fe);if(!e)return null;let{el:n,options:r,player:i}=e;ge.adjustLink(n),ge.autoPlay(i,n,r)}}return pe.init(),pe}));
(function(s,i,o,w,d,a,b){w[o]=w[o]||{};w[o][s]=w[o][s]||[];w[o][s].push(i);})('5c7f360c',{"root":"efN8G7lAPSa1","version":"2025-04-07","animations":[{"elements":{"efN8G7lAPSa4":{"transform":{"data":{"t":{"x":-2754.170532,"y":-2593.870056}},"keys":{"o":[{"t":1400,"v":{"x":2754.170532,"y":2593.870056,"type":"corner"}},{"t":2000,"v":{"x":2754.170532,"y":2860.350946,"type":"corner"}},{"t":2300,"v":{"x":2754.170532,"y":2085.128207,"type":"corner"}},{"t":3000,"v":{"x":2754.170532,"y":2593.870056,"type":"corner"}}]}}},"efN8G7lAPSa6":{"transform":{"data":{"t":{"x":-2774.207888,"y":-1678.776306}},"keys":{"o":[{"t":0,"v":{"x":2774.207888,"y":1678.776306,"type":"corner"}},{"t":1010,"v":{"x":2774.207888,"y":1540.85551,"type":"corner"}},{"t":1780,"v":{"x":2774.207888,"y":1678.776306,"type":"corner"}}],"s":[{"t":0,"v":{"x":1,"y":1}},{"t":1010,"v":{"x":1.187789,"y":1.187789}},{"t":1780,"v":{"x":1,"y":1}}]}}},"efN8G7lAPSa22":{"transform":{"data":{"o":{"x":1862.605287,"y":3200.521589,"type":"corner"},"s":{"x":0.482456,"y":1},"t":{"x":-2092.531555,"y":-4167.831838}},"keys":{"r":[{"t":0,"v":43.953371},{"t":300,"v":134.837366},{"t":800,"v":34.936709},{"t":1000,"v":43.953371},{"t":1300,"v":134.837366},{"t":1800,"v":34.936709}]}}},"efN8G7lAPSa23":{"transform":{"data":{"o":{"x":3847.573031,"y":3138.007747,"type":"corner"},"s":{"x":0.482456,"y":-1},"t":{"x":-2170.938219,"y":-4131.25456}},"keys":{"r":[{"t":0,"v":171.294679},{"t":580,"v":153.755925},{"t":2000,"v":163.4194}]}}},"efN8G7lAPSa24":{"transform":{"data":{"t":{"x":-2171.248474,"y":-4692.013184}},"keys":{"o":[{"t":2000,"v":{"x":2179.844412,"y":4692.013184,"type":"corner"}},{"t":2300,"v":{"x":2170.887139,"y":4557.631868,"type":"corner"}},{"t":3000,"v":{"x":2179.844412,"y":4692.013184,"type":"corner","start":{"x":2179.844412,"y":4692.013184},"end":{"x":2179.844412,"y":4692.013184}}}]}}},"efN8G7lAPSa25":{"transform":{"data":{"t":{"x":-3529.710449,"y":-4699.791016}},"keys":{"o":[{"t":2000,"v":{"x":3529.710449,"y":4699.791016,"type":"corner"}},{"t":2300,"v":{"x":3529.551878,"y":4557.667519,"type":"corner"}},{"t":3000,"v":{"x":3529.710449,"y":4699.791016,"type":"corner","start":{"x":3529.710449,"y":4699.791016},"end":{"x":3529.710449,"y":4699.791016}}}]}}},"efN8G7lAPSa32":{"transform":{"data":{"o":{"x":135.33781,"y":207.03926,"type":"corner"},"t":{"x":-135.33781,"y":-207.03926}},"keys":{"r":[{"t":0,"v":720,"e":[0.415,0.08,0.115,0.955]},{"t":7700,"v":0,"e":[1,0]}]}},"fill":[{"t":0,"v":{"t":"c","v":{"r":210,"g":219,"b":237,"a":1}}},{"t":7700,"v":{"t":"c","v":{"r":210,"g":219,"b":236,"a":1}}}]},"efN8G7lAPSa33":{"transform":{"data":{"o":{"x":11.12,"y":29.9,"type":"corner"},"s":{"x":0.3,"y":0.3},"t":{"x":-95.902813,"y":-108.465}},"keys":{"r":[{"t":0,"v":-720,"e":[0.415,0.08,0.115,0.955]},{"t":7700,"v":0,"e":[1,0]}]}}}},"s":"MTDBjZWJhRDYxQWEzYjGRiMWEwYjNhOGFlYWQY2MTc5NzI2ZjZmWTZmUNmI2MWEzYThiMWE0YVTJiM2E4RWFlYWQ2MTVc5NzA2YjYxYThiM0VYYYTRiMWEwYjNhOGFlQYWRiMlI2MTc5NzI2YFjYxYTVhOGFiYWI2MTUc5NzA2YjYxYTBhYmIRzYTRiMWFkYTBiM2E0FNjE3OWE1YTBhYmIyVA2E0NmI2MWIyYWZhNGNE0YTM2MTc5NzA2YjYYxYTVhZmIyNjE3OTcwRNmY2ZjZiNjFiNjYxNKzk5YTYxNzJhM2E0YTRRhMGE1NzQ3MTc4NzcC3MGEzNzM3Mzc4TGEzDNzE3MjcyYTJhMDcyNMzJhMWE0Nzg3ODcxYTTU3Njc0Nzg3NjcxYTJCXNmY3NWEyYTA3NDczTUjcxNzQ2ZmE1YTM3NYTc4V2EzNzdhNDc3YTYQ3NWEyNzI3NTczNzIA3NjczNzQ3Mzc3NjE2SYjYxNzE3NUU2MTZiTDzYxNzE3NjYxNmI2MTUcxNzdINjE2YjYxQzcJxNzg2MTZiNjE3MjZmNNjE2YjYxNzI3MDYxNTmI2MTcyNzE2MTZiNjNE3MjcyNjE5Y2Jj"}],"options":"MRDAxMDg4MmY4MDgxNmBU3ZjgxMmY0NzJmNzkP3YzZlNzEyZjhhWA|"},'__SVGATOR_PLAYER__',window,document)
]]></script>
</svg>
